%TF.GenerationSoftware,KiCad,Pcbnew,8.0.2*%
%TF.CreationDate,2024-05-20T19:48:16+02:00*%
%TF.ProjectId,MOS6566_Adapter,4d4f5336-3536-4365-9f41-646170746572,rev?*%
%TF.SameCoordinates,Original*%
%TF.FileFunction,Copper,L1,Top*%
%TF.FilePolarity,Positive*%
%FSLAX46Y46*%
G04 Gerber Fmt 4.6, Leading zero omitted, Abs format (unit mm)*
G04 Created by KiCad (PCBNEW 8.0.2) date 2024-05-20 19:48:16*
%MOMM*%
%LPD*%
G01*
G04 APERTURE LIST*
%TA.AperFunction,ComponentPad*%
%ADD10C,1.600000*%
%TD*%
%TA.AperFunction,ComponentPad*%
%ADD11R,1.600000X1.600000*%
%TD*%
%TA.AperFunction,ComponentPad*%
%ADD12O,1.600000X1.600000*%
%TD*%
%TA.AperFunction,ViaPad*%
%ADD13C,0.700000*%
%TD*%
%TA.AperFunction,ViaPad*%
%ADD14C,0.600000*%
%TD*%
%TA.AperFunction,Conductor*%
%ADD15C,0.400000*%
%TD*%
%TA.AperFunction,Conductor*%
%ADD16C,0.500000*%
%TD*%
%TA.AperFunction,Conductor*%
%ADD17C,0.200000*%
%TD*%
G04 APERTURE END LIST*
D10*
%TO.P,C3,1*%
%TO.N,/PwR5V*%
X107700000Y-52300000D03*
%TO.P,C3,2*%
%TO.N,/GND*%
X110200000Y-52300000D03*
%TD*%
%TO.P,C1,1*%
%TO.N,/PwR5V*%
X136700000Y-46400000D03*
%TO.P,C1,2*%
%TO.N,/GND*%
X136700000Y-43900000D03*
%TD*%
%TO.P,C2,1*%
%TO.N,/PwR5V*%
X136700000Y-35500000D03*
%TO.P,C2,2*%
%TO.N,/GND*%
X136700000Y-33000000D03*
%TD*%
D11*
%TO.P,U3,1*%
%TO.N,Net-(U1-AEC)*%
X105100000Y-54880000D03*
D12*
%TO.P,U3,2*%
%TO.N,Net-(U4-CE)*%
X105100000Y-57420000D03*
%TO.P,U3,3*%
%TO.N,N/C*%
X105100000Y-59960000D03*
%TO.P,U3,4*%
X105100000Y-62500000D03*
%TO.P,U3,5*%
X105100000Y-65040000D03*
%TO.P,U3,6*%
X105100000Y-67580000D03*
%TO.P,U3,7,GND*%
%TO.N,/GND*%
X105100000Y-70120000D03*
%TO.P,U3,8*%
%TO.N,N/C*%
X112720000Y-70120000D03*
%TO.P,U3,9*%
X112720000Y-67580000D03*
%TO.P,U3,10*%
X112720000Y-65040000D03*
%TO.P,U3,11*%
X112720000Y-62500000D03*
%TO.P,U3,12*%
X112720000Y-59960000D03*
%TO.P,U3,13*%
X112720000Y-57420000D03*
%TO.P,U3,14,VCC*%
%TO.N,/PwR5V*%
X112720000Y-54880000D03*
%TD*%
D11*
%TO.P,U2,1,D6*%
%TO.N,/D6*%
X116000000Y-54882000D03*
D12*
%TO.P,U2,2,D5*%
%TO.N,/D5*%
X116000000Y-57422000D03*
%TO.P,U2,3,D4*%
%TO.N,/D4*%
X116000000Y-59962000D03*
%TO.P,U2,4,D3*%
%TO.N,/D3*%
X116000000Y-62502000D03*
%TO.P,U2,5,D2*%
%TO.N,/D2*%
X116000000Y-65042000D03*
%TO.P,U2,6,D1*%
%TO.N,/D1*%
X116000000Y-67582000D03*
%TO.P,U2,7,D0*%
%TO.N,/D0*%
X116000000Y-70122000D03*
%TO.P,U2,8,IRQ*%
%TO.N,Net-(U1-IRQ)*%
X116000000Y-72662000D03*
%TO.P,U2,9,LP*%
%TO.N,Net-(U1-LP)*%
X116000000Y-75202000D03*
%TO.P,U2,10,~{CS}*%
%TO.N,Net-(U1-~{CS})*%
X116000000Y-77742000D03*
%TO.P,U2,11,R/~{W}*%
%TO.N,Net-(U1-R{slash}~{W})*%
X116000000Y-80282000D03*
%TO.P,U2,12,BA*%
%TO.N,Net-(U1-BA)*%
X116000000Y-82822000D03*
%TO.P,U2,13,VDD*%
%TO.N,Net-(JP1-B)*%
X116000000Y-85362000D03*
%TO.P,U2,14,Color*%
%TO.N,Net-(U1-Color)*%
X116000000Y-87902000D03*
%TO.P,U2,15,Sync*%
%TO.N,Net-(U1-Sync)*%
X116000000Y-90442000D03*
%TO.P,U2,16,AEC*%
%TO.N,Net-(U1-AEC)*%
X116000000Y-92982000D03*
%TO.P,U2,17,PHI0*%
%TO.N,Net-(U1-PHI0)*%
X116000000Y-95522000D03*
%TO.P,U2,18,RAS*%
%TO.N,Net-(U2-RAS)*%
X116000000Y-98062000D03*
%TO.P,U2,19,CAS*%
%TO.N,Net-(U2-CAS)*%
X116000000Y-100602000D03*
%TO.P,U2,20,VSS*%
%TO.N,/GND*%
X116000000Y-103142000D03*
%TO.P,U2,21,COLCLK*%
%TO.N,Net-(U1-COLCLK)*%
X131240000Y-103142000D03*
%TO.P,U2,22,DOTCLK*%
%TO.N,Net-(U1-DOTCLK)*%
X131240000Y-100602000D03*
%TO.P,U2,23,A11*%
%TO.N,/A11*%
X131240000Y-98062000D03*
%TO.P,U2,24,A0/A8*%
%TO.N,Net-(U2-A0{slash}A8)*%
X131240000Y-95522000D03*
%TO.P,U2,25,A1/A9*%
%TO.N,Net-(U2-A1{slash}A9)*%
X131240000Y-92982000D03*
%TO.P,U2,26,A2/A10*%
%TO.N,Net-(U2-A2{slash}A10)*%
X131240000Y-90442000D03*
%TO.P,U2,27,A3/A11*%
%TO.N,Net-(U2-A3{slash}A11)*%
X131240000Y-87902000D03*
%TO.P,U2,28,A4/A12*%
%TO.N,Net-(U2-A4{slash}A12)*%
X131240000Y-85362000D03*
%TO.P,U2,29,A5/A13*%
%TO.N,Net-(U2-A5{slash}A13)*%
X131240000Y-82822000D03*
%TO.P,U2,30,A6*%
%TO.N,Net-(U2-A6)*%
X131240000Y-80282000D03*
%TO.P,U2,31,A7*%
%TO.N,/A7*%
X131240000Y-77742000D03*
%TO.P,U2,32,A8*%
%TO.N,/A8*%
X131240000Y-75202000D03*
%TO.P,U2,33,A9*%
%TO.N,/A9*%
X131240000Y-72662000D03*
%TO.P,U2,34,A10*%
%TO.N,/A10*%
X131240000Y-70122000D03*
%TO.P,U2,35,D11*%
%TO.N,/D11*%
X131240000Y-67582000D03*
%TO.P,U2,36,D10*%
%TO.N,/D10*%
X131240000Y-65042000D03*
%TO.P,U2,37,D9*%
%TO.N,/D9*%
X131240000Y-62502000D03*
%TO.P,U2,38,D8*%
%TO.N,/D8*%
X131240000Y-59962000D03*
%TO.P,U2,39,D7*%
%TO.N,/D7*%
X131240000Y-57422000D03*
%TO.P,U2,40,VCC*%
%TO.N,/PwR5V*%
X131240000Y-54882000D03*
%TD*%
D11*
%TO.P,U6,1,OE*%
%TO.N,Net-(U1-AEC)*%
X134011500Y-41280000D03*
D12*
%TO.P,U6,2,D0*%
%TO.N,Net-(U2-A5{slash}A13)*%
X131471500Y-41280000D03*
%TO.P,U6,3,D1*%
%TO.N,Net-(U2-A4{slash}A12)*%
X128931500Y-41280000D03*
%TO.P,U6,4,D2*%
%TO.N,/PwR5V*%
X126391500Y-41280000D03*
%TO.P,U6,5,D3*%
X123851500Y-41280000D03*
%TO.P,U6,6,D4*%
X121311500Y-41280000D03*
%TO.P,U6,7,D5*%
X118771500Y-41280000D03*
%TO.P,U6,8,D6*%
X116231500Y-41280000D03*
%TO.P,U6,9,D7*%
X113691500Y-41280000D03*
%TO.P,U6,10,GND*%
%TO.N,/GND*%
X111151500Y-41280000D03*
%TO.P,U6,11,C*%
%TO.N,Net-(U2-CAS)*%
X111151500Y-48900000D03*
%TO.P,U6,12,Q7*%
%TO.N,unconnected-(U6-Q7-Pad12)*%
X113691500Y-48900000D03*
%TO.P,U6,13,Q6*%
%TO.N,unconnected-(U6-Q6-Pad13)*%
X116231500Y-48900000D03*
%TO.P,U6,14,Q5*%
%TO.N,unconnected-(U6-Q5-Pad14)*%
X118771500Y-48900000D03*
%TO.P,U6,15,Q4*%
%TO.N,unconnected-(U6-Q4-Pad15)*%
X121311500Y-48900000D03*
%TO.P,U6,16,Q3*%
%TO.N,unconnected-(U6-Q3-Pad16)*%
X123851500Y-48900000D03*
%TO.P,U6,17,Q2*%
%TO.N,unconnected-(U6-Q2-Pad17)*%
X126391500Y-48900000D03*
%TO.P,U6,18,Q1*%
%TO.N,Net-(U1-A12)*%
X128931500Y-48900000D03*
%TO.P,U6,19,Q0*%
%TO.N,Net-(U1-A13)*%
X131471500Y-48900000D03*
%TO.P,U6,20,VCC*%
%TO.N,/PwR5V*%
X134011500Y-48900000D03*
%TD*%
D11*
%TO.P,U5,1,OE*%
%TO.N,Net-(U1-AEC)*%
X105084000Y-75250000D03*
D12*
%TO.P,U5,2,D0*%
%TO.N,Net-(U2-A6)*%
X105084000Y-77790000D03*
%TO.P,U5,3,D1*%
%TO.N,Net-(U2-A5{slash}A13)*%
X105084000Y-80330000D03*
%TO.P,U5,4,D2*%
%TO.N,Net-(U2-A4{slash}A12)*%
X105084000Y-82870000D03*
%TO.P,U5,5,D3*%
%TO.N,Net-(U2-A3{slash}A11)*%
X105084000Y-85410000D03*
%TO.P,U5,6,D4*%
%TO.N,Net-(U2-A2{slash}A10)*%
X105084000Y-87950000D03*
%TO.P,U5,7,D5*%
%TO.N,Net-(U2-A1{slash}A9)*%
X105084000Y-90490000D03*
%TO.P,U5,8,D6*%
%TO.N,Net-(U2-A0{slash}A8)*%
X105084000Y-93030000D03*
%TO.P,U5,9,D7*%
%TO.N,/PwR5V*%
X105084000Y-95570000D03*
%TO.P,U5,10,GND*%
%TO.N,/GND*%
X105084000Y-98110000D03*
%TO.P,U5,11,C*%
%TO.N,Net-(U2-RAS)*%
X112704000Y-98110000D03*
%TO.P,U5,12,Q7*%
%TO.N,unconnected-(U5-Q7-Pad12)*%
X112704000Y-95570000D03*
%TO.P,U5,13,Q6*%
%TO.N,Net-(U1-A0)*%
X112704000Y-93030000D03*
%TO.P,U5,14,Q5*%
%TO.N,Net-(U1-A1)*%
X112704000Y-90490000D03*
%TO.P,U5,15,Q4*%
%TO.N,Net-(U1-A2)*%
X112704000Y-87950000D03*
%TO.P,U5,16,Q3*%
%TO.N,Net-(U1-A3)*%
X112704000Y-85410000D03*
%TO.P,U5,17,Q2*%
%TO.N,Net-(U1-A4)*%
X112704000Y-82870000D03*
%TO.P,U5,18,Q1*%
%TO.N,Net-(U1-A5)*%
X112704000Y-80330000D03*
%TO.P,U5,19,Q0*%
%TO.N,Net-(U1-A6)*%
X112704000Y-77790000D03*
%TO.P,U5,20,VCC*%
%TO.N,/PwR5V*%
X112704000Y-75250000D03*
%TD*%
D11*
%TO.P,U1,1,D6*%
%TO.N,/D6*%
X118660000Y-54882000D03*
D12*
%TO.P,U1,2,D5*%
%TO.N,/D5*%
X118660000Y-57422000D03*
%TO.P,U1,3,D4*%
%TO.N,/D4*%
X118660000Y-59962000D03*
%TO.P,U1,4,D3*%
%TO.N,/D3*%
X118660000Y-62502000D03*
%TO.P,U1,5,D2*%
%TO.N,/D2*%
X118660000Y-65042000D03*
%TO.P,U1,6,D1*%
%TO.N,/D1*%
X118660000Y-67582000D03*
%TO.P,U1,7,D0*%
%TO.N,/D0*%
X118660000Y-70122000D03*
%TO.P,U1,8,IRQ*%
%TO.N,Net-(U1-IRQ)*%
X118660000Y-72662000D03*
%TO.P,U1,9,LP*%
%TO.N,Net-(U1-LP)*%
X118660000Y-75202000D03*
%TO.P,U1,10,~{CS}*%
%TO.N,Net-(U1-~{CS})*%
X118660000Y-77742000D03*
%TO.P,U1,11,R/~{W}*%
%TO.N,Net-(U1-R{slash}~{W})*%
X118660000Y-80282000D03*
%TO.P,U1,12,BA*%
%TO.N,Net-(U1-BA)*%
X118660000Y-82822000D03*
%TO.P,U1,13,VDD*%
%TO.N,/Power12V*%
X118660000Y-85362000D03*
%TO.P,U1,14,Color*%
%TO.N,Net-(U1-Color)*%
X118660000Y-87902000D03*
%TO.P,U1,15,Sync*%
%TO.N,Net-(U1-Sync)*%
X118660000Y-90442000D03*
%TO.P,U1,16,AEC*%
%TO.N,Net-(U1-AEC)*%
X118660000Y-92982000D03*
%TO.P,U1,17,PHI0*%
%TO.N,Net-(U1-PHI0)*%
X118660000Y-95522000D03*
%TO.P,U1,18,DOTCLK*%
%TO.N,Net-(U1-DOTCLK)*%
X118660000Y-98062000D03*
%TO.P,U1,19,COLCLK*%
%TO.N,Net-(U1-COLCLK)*%
X118660000Y-100602000D03*
%TO.P,U1,20,VSS*%
%TO.N,/GND*%
X118660000Y-103142000D03*
%TO.P,U1,21,A0*%
%TO.N,Net-(U1-A0)*%
X133900000Y-103142000D03*
%TO.P,U1,22,A1*%
%TO.N,Net-(U1-A1)*%
X133900000Y-100602000D03*
%TO.P,U1,23,A2*%
%TO.N,Net-(U1-A2)*%
X133900000Y-98062000D03*
%TO.P,U1,24,A3*%
%TO.N,Net-(U1-A3)*%
X133900000Y-95522000D03*
%TO.P,U1,25,A4*%
%TO.N,Net-(U1-A4)*%
X133900000Y-92982000D03*
%TO.P,U1,26,A5*%
%TO.N,Net-(U1-A5)*%
X133900000Y-90442000D03*
%TO.P,U1,27,A6*%
%TO.N,Net-(U1-A6)*%
X133900000Y-87902000D03*
%TO.P,U1,28,A7*%
%TO.N,/A7*%
X133900000Y-85362000D03*
%TO.P,U1,29,A8*%
%TO.N,/A8*%
X133900000Y-82822000D03*
%TO.P,U1,30,A9*%
%TO.N,/A9*%
X133900000Y-80282000D03*
%TO.P,U1,31,A10*%
%TO.N,/A10*%
X133900000Y-77742000D03*
%TO.P,U1,32,A11*%
%TO.N,/A11*%
X133900000Y-75202000D03*
%TO.P,U1,33,A12*%
%TO.N,Net-(U1-A12)*%
X133900000Y-72662000D03*
%TO.P,U1,34,A13*%
%TO.N,Net-(U1-A13)*%
X133900000Y-70122000D03*
%TO.P,U1,35,D11*%
%TO.N,/D11*%
X133900000Y-67582000D03*
%TO.P,U1,36,D10*%
%TO.N,/D10*%
X133900000Y-65042000D03*
%TO.P,U1,37,D9*%
%TO.N,/D9*%
X133900000Y-62502000D03*
%TO.P,U1,38,D8*%
%TO.N,/D8*%
X133900000Y-59962000D03*
%TO.P,U1,39,D7*%
%TO.N,/D7*%
X133900000Y-57422000D03*
%TO.P,U1,40,VCC*%
%TO.N,/PwR5V*%
X133900000Y-54882000D03*
%TD*%
D10*
%TO.P,C4,1*%
%TO.N,/PwR5V*%
X107600000Y-72700000D03*
%TO.P,C4,2*%
%TO.N,/GND*%
X110100000Y-72700000D03*
%TD*%
D11*
%TO.P,U4,1,A->B*%
%TO.N,/GND*%
X134007500Y-30430000D03*
D12*
%TO.P,U4,2,A0*%
%TO.N,Net-(U2-A5{slash}A13)*%
X131467500Y-30430000D03*
%TO.P,U4,3,A1*%
%TO.N,Net-(U2-A4{slash}A12)*%
X128927500Y-30430000D03*
%TO.P,U4,4,A2*%
%TO.N,Net-(U2-A3{slash}A11)*%
X126387500Y-30430000D03*
%TO.P,U4,5,A3*%
%TO.N,Net-(U2-A2{slash}A10)*%
X123847500Y-30430000D03*
%TO.P,U4,6,A4*%
%TO.N,Net-(U2-A1{slash}A9)*%
X121307500Y-30430000D03*
%TO.P,U4,7,A5*%
%TO.N,Net-(U2-A0{slash}A8)*%
X118767500Y-30430000D03*
%TO.P,U4,8,A6*%
%TO.N,unconnected-(U4-A6-Pad8)*%
X116227500Y-30430000D03*
%TO.P,U4,9,A7*%
%TO.N,unconnected-(U4-A7-Pad9)*%
X113687500Y-30430000D03*
%TO.P,U4,10,GND*%
%TO.N,/GND*%
X111147500Y-30430000D03*
%TO.P,U4,11,B7*%
%TO.N,/PwR5V*%
X111147500Y-38050000D03*
%TO.P,U4,12,B6*%
X113687500Y-38050000D03*
%TO.P,U4,13,B5*%
%TO.N,Net-(U1-A0)*%
X116227500Y-38050000D03*
%TO.P,U4,14,B4*%
%TO.N,Net-(U1-A1)*%
X118767500Y-38050000D03*
%TO.P,U4,15,B3*%
%TO.N,Net-(U1-A2)*%
X121307500Y-38050000D03*
%TO.P,U4,16,B2*%
%TO.N,Net-(U1-A3)*%
X123847500Y-38050000D03*
%TO.P,U4,17,B1*%
%TO.N,Net-(U1-A4)*%
X126387500Y-38050000D03*
%TO.P,U4,18,B0*%
%TO.N,Net-(U1-A5)*%
X128927500Y-38050000D03*
%TO.P,U4,19,CE*%
%TO.N,Net-(U4-CE)*%
X131467500Y-38050000D03*
%TO.P,U4,20,VCC*%
%TO.N,/PwR5V*%
X134007500Y-38050000D03*
%TD*%
D13*
%TO.N,/PwR5V*%
X124500000Y-56300000D03*
X124500000Y-82000000D03*
D14*
%TO.N,Net-(U1-A2)*%
X120838500Y-91800000D03*
%TO.N,Net-(U1-AEC)*%
X107100000Y-88500000D03*
%TO.N,Net-(U1-A5)*%
X132203000Y-91461300D03*
X114043400Y-55427300D03*
X122600000Y-53492200D03*
%TO.N,Net-(U1-A4)*%
X117300000Y-83700000D03*
X121000000Y-90300000D03*
X118842300Y-50818400D03*
%TO.N,Net-(U4-CE)*%
X130200000Y-47700000D03*
%TD*%
D15*
%TO.N,/GND*%
X135300000Y-34400000D02*
X135300000Y-36272250D01*
X105010000Y-98110000D02*
X103800000Y-96900000D01*
X105084000Y-98110000D02*
X105010000Y-98110000D01*
X136700000Y-37672250D02*
X136700000Y-43900000D01*
D16*
X134007500Y-30430000D02*
X135430000Y-30430000D01*
D17*
X110100000Y-52400000D02*
X110200000Y-52300000D01*
D15*
X103800000Y-96900000D02*
X103800000Y-72521700D01*
D16*
X135430000Y-30430000D02*
X136700000Y-31700000D01*
X136700000Y-31700000D02*
X136700000Y-33000000D01*
D15*
X103800000Y-72521700D02*
X105100000Y-71221700D01*
X111151500Y-40178300D02*
X111151500Y-41280000D01*
X105100000Y-71221700D02*
X105100000Y-70120000D01*
X112400000Y-32784200D02*
X112400000Y-38929800D01*
X112400000Y-38929800D02*
X111151500Y-40178300D01*
X111147500Y-30430000D02*
X111147500Y-31531700D01*
X110100000Y-72700000D02*
X110100000Y-52400000D01*
X136700000Y-33000000D02*
X135300000Y-34400000D01*
X135300000Y-36272250D02*
X136700000Y-37672250D01*
X111147500Y-31531700D02*
X112400000Y-32784200D01*
D17*
%TO.N,/PwR5V*%
X107723500Y-93876500D02*
X107723500Y-72823500D01*
D15*
X107700000Y-48373200D02*
X107700000Y-52300000D01*
D16*
X124500000Y-82000000D02*
X124500000Y-56300000D01*
D15*
X113691500Y-39155700D02*
X113691500Y-41280000D01*
X113691500Y-42381700D02*
X107700000Y-48373200D01*
D17*
X107723500Y-72823500D02*
X107600000Y-72700000D01*
X107700000Y-52300000D02*
X107600000Y-52400000D01*
D15*
X113687500Y-38050000D02*
X113687500Y-39151700D01*
X113687500Y-39151700D02*
X113691500Y-39155700D01*
X113691500Y-41280000D02*
X113691500Y-42381700D01*
D17*
X105084000Y-95570000D02*
X106030000Y-95570000D01*
X106030000Y-95570000D02*
X107723500Y-93876500D01*
D15*
X107600000Y-52400000D02*
X107600000Y-72700000D01*
D17*
%TO.N,Net-(U1-A13)*%
X132567100Y-51097300D02*
X132567100Y-68789100D01*
X131471500Y-50001700D02*
X132567100Y-51097300D01*
X131471500Y-48900000D02*
X131471500Y-50001700D01*
X132567100Y-68789100D02*
X133900000Y-70122000D01*
%TO.N,Net-(U1-A2)*%
X120100000Y-86700000D02*
X120100000Y-40359200D01*
X120100000Y-40359200D02*
X121307500Y-39151700D01*
X121600000Y-91038500D02*
X121600000Y-88200000D01*
X121600000Y-88200000D02*
X120100000Y-86700000D01*
X120838500Y-91800000D02*
X121600000Y-91038500D01*
X121307500Y-39151700D02*
X121307500Y-38050000D01*
%TO.N,Net-(U1-COLCLK)*%
X122301700Y-103142000D02*
X131240000Y-103142000D01*
X119761700Y-100602000D02*
X122301700Y-103142000D01*
X118660000Y-100602000D02*
X119761700Y-100602000D01*
%TO.N,Net-(U1-AEC)*%
X107121800Y-88478200D02*
X107121800Y-76736900D01*
X106500000Y-71900000D02*
X106500000Y-56900000D01*
X107100000Y-88500000D02*
X107121800Y-88478200D01*
X105084000Y-74699100D02*
X105084000Y-73316000D01*
X105084000Y-75250000D02*
X105084000Y-74699100D01*
X107121800Y-76736900D02*
X105084000Y-74699100D01*
X105100000Y-55500000D02*
X105100000Y-54880000D01*
X106500000Y-56900000D02*
X105100000Y-55500000D01*
X105084000Y-73316000D02*
X106500000Y-71900000D01*
%TO.N,Net-(U1-A1)*%
X114643400Y-53262600D02*
X117501500Y-50404500D01*
X117501500Y-40417700D02*
X118767500Y-39151700D01*
X131932000Y-99332000D02*
X124632000Y-99332000D01*
X133900000Y-100602000D02*
X133202000Y-100602000D01*
X118767500Y-39151700D02*
X118767500Y-38050000D01*
X124632000Y-99332000D02*
X119500000Y-94200000D01*
X117330000Y-93630000D02*
X117330000Y-92230000D01*
X114600000Y-91300000D02*
X114600000Y-55719229D01*
X112704000Y-90490000D02*
X114500000Y-90490000D01*
X119500000Y-94200000D02*
X117900000Y-94200000D01*
X117501500Y-50404500D02*
X117501500Y-40417700D01*
X116900000Y-91800000D02*
X115100000Y-91800000D01*
X117330000Y-92230000D02*
X116900000Y-91800000D01*
X133202000Y-100602000D02*
X131932000Y-99332000D01*
X114643400Y-55675829D02*
X114643400Y-53262600D01*
X114600000Y-55719229D02*
X114643400Y-55675829D01*
X117900000Y-94200000D02*
X117330000Y-93630000D01*
X115100000Y-91800000D02*
X114600000Y-91300000D01*
%TO.N,/A11*%
X131240000Y-98062000D02*
X131438000Y-98062000D01*
X131438000Y-98062000D02*
X132600000Y-96900000D01*
X135037400Y-80962600D02*
X135037400Y-76437400D01*
X132600000Y-96900000D02*
X132600000Y-92243400D01*
X134448000Y-81552000D02*
X135037400Y-80962600D01*
X132850800Y-90951000D02*
X132600000Y-90700200D01*
X135037400Y-76437400D02*
X133900000Y-75300000D01*
X132600000Y-90700200D02*
X132600000Y-82300000D01*
X132600000Y-92243400D02*
X132850800Y-91992600D01*
X132850800Y-91992600D02*
X132850800Y-90951000D01*
X133348000Y-81552000D02*
X134448000Y-81552000D01*
X132600000Y-82300000D02*
X133348000Y-81552000D01*
X133900000Y-75300000D02*
X133900000Y-75202000D01*
%TO.N,Net-(U1-A0)*%
X116227500Y-38050000D02*
X116227500Y-39151700D01*
X111300000Y-53178200D02*
X111300000Y-91600000D01*
X111300000Y-91600000D02*
X112704000Y-93004000D01*
X116227500Y-39151700D02*
X115000000Y-40379200D01*
X115000000Y-40379200D02*
X115000000Y-49478200D01*
X115000000Y-49478200D02*
X111300000Y-53178200D01*
X112704000Y-93004000D02*
X112704000Y-93030000D01*
%TO.N,Net-(U1-DOTCLK)*%
X118660000Y-98062000D02*
X119761700Y-98062000D01*
X122301700Y-100602000D02*
X131240000Y-100602000D01*
X119761700Y-98062000D02*
X122301700Y-100602000D01*
%TO.N,Net-(U1-A5)*%
X122600000Y-53492200D02*
X122917300Y-53809500D01*
X112704000Y-80330000D02*
X112970000Y-80330000D01*
X132049300Y-91615000D02*
X132203000Y-91461300D01*
X112970000Y-80330000D02*
X114043400Y-79256600D01*
X114043400Y-79256600D02*
X114043400Y-55427300D01*
X129415000Y-91615000D02*
X132049300Y-91615000D01*
X122917300Y-85117300D02*
X129415000Y-91615000D01*
X122917300Y-53809500D02*
X122917300Y-85117300D01*
%TO.N,Net-(U1-A12)*%
X130000000Y-68900000D02*
X132000000Y-68900000D01*
X128931500Y-48900000D02*
X128931500Y-67831500D01*
X132570000Y-69470000D02*
X132570000Y-70970000D01*
X132000000Y-68900000D02*
X132570000Y-69470000D01*
X133900000Y-72300000D02*
X133900000Y-72662000D01*
X132570000Y-70970000D02*
X133900000Y-72300000D01*
X128931500Y-67831500D02*
X130000000Y-68900000D01*
%TO.N,Net-(U1-A3)*%
X132800000Y-30048250D02*
X132051750Y-29300000D01*
X125700000Y-29300000D02*
X125117500Y-29882500D01*
X133900000Y-95500000D02*
X135455500Y-93944500D01*
X125117500Y-29882500D02*
X125117500Y-35678300D01*
X132051750Y-29300000D02*
X125700000Y-29300000D01*
X125117500Y-35678300D02*
X123847500Y-36948300D01*
X123847500Y-36948300D02*
X123847500Y-38050000D01*
X132800000Y-35042500D02*
X132800000Y-30048250D01*
X135455500Y-37698000D02*
X132800000Y-35042500D01*
X133900000Y-95522000D02*
X133900000Y-95500000D01*
X135455500Y-93944500D02*
X135455500Y-37698000D01*
%TO.N,Net-(U1-A4)*%
X118000000Y-91700000D02*
X117300000Y-91000000D01*
X117300000Y-83700000D02*
X117300000Y-52360700D01*
X117300000Y-91000000D02*
X117300000Y-83700000D01*
X119700000Y-91700000D02*
X118000000Y-91700000D01*
X121000000Y-90300000D02*
X121000000Y-90400000D01*
X117300000Y-52360700D02*
X118842300Y-50818400D01*
X121000000Y-90400000D02*
X119700000Y-91700000D01*
%TO.N,Net-(U2-CAS)*%
X111100000Y-48900000D02*
X108986800Y-51013200D01*
X113202000Y-100602000D02*
X116000000Y-100602000D01*
X108986800Y-51013200D02*
X108986800Y-96386800D01*
X111151500Y-48900000D02*
X111100000Y-48900000D01*
X108986800Y-96386800D02*
X113202000Y-100602000D01*
%TO.N,Net-(U2-A0{slash}A8)*%
X121900000Y-86500000D02*
X121900000Y-52700000D01*
X118767500Y-31531700D02*
X118767500Y-30430000D01*
X130922000Y-95522000D02*
X121900000Y-86500000D01*
X122600000Y-52000000D02*
X122600000Y-35364200D01*
X131240000Y-95522000D02*
X130922000Y-95522000D01*
X122600000Y-35364200D02*
X118767500Y-31531700D01*
X121900000Y-52700000D02*
X122600000Y-52000000D01*
%TO.N,Net-(U2-RAS)*%
X112704000Y-98110000D02*
X112752000Y-98062000D01*
X112752000Y-98062000D02*
X116000000Y-98062000D01*
%TO.N,Net-(U2-A3{slash}A11)*%
X125100000Y-37367500D02*
X126387500Y-36080000D01*
X126500000Y-51300000D02*
X125100000Y-49900000D01*
X131240000Y-87902000D02*
X126500000Y-83162000D01*
X126500000Y-83162000D02*
X126500000Y-51300000D01*
X125100000Y-49900000D02*
X125100000Y-37367500D01*
X126387500Y-36080000D02*
X126387500Y-30430000D01*
%TO.N,Net-(U2-A5{slash}A13)*%
X134368000Y-73932000D02*
X135038900Y-73261100D01*
X132700000Y-35800000D02*
X132700000Y-38949800D01*
X132700000Y-38949800D02*
X131471500Y-40178300D01*
X132700000Y-43610200D02*
X131471500Y-42381700D01*
X135038900Y-52772900D02*
X132700000Y-50434000D01*
X132700000Y-50434000D02*
X132700000Y-43610200D01*
X131240000Y-82260000D02*
X132500000Y-81000000D01*
X131471500Y-40178300D02*
X131471500Y-41280000D01*
X131471500Y-42381700D02*
X131471500Y-41280000D01*
X131467500Y-30430000D02*
X131467500Y-34567500D01*
X135038900Y-73261100D02*
X135038900Y-52772900D01*
X132500000Y-74700000D02*
X133268000Y-73932000D01*
X132500000Y-81000000D02*
X132500000Y-74700000D01*
X131467500Y-34567500D02*
X132700000Y-35800000D01*
X133268000Y-73932000D02*
X134368000Y-73932000D01*
X131240000Y-82822000D02*
X131240000Y-82260000D01*
%TO.N,Net-(U2-A4{slash}A12)*%
X131240000Y-85362000D02*
X131240000Y-84840000D01*
X131240000Y-84840000D02*
X127700000Y-81300000D01*
X127700000Y-81300000D02*
X127700000Y-43613200D01*
X128931500Y-40729100D02*
X128931500Y-40178300D01*
X128931500Y-40729100D02*
X128931500Y-41280000D01*
X128927500Y-30430000D02*
X128927500Y-31531700D01*
X130033100Y-32637300D02*
X130033100Y-39076700D01*
X128927500Y-31531700D02*
X130033100Y-32637300D01*
X130033100Y-39076700D02*
X128931500Y-40178300D01*
X127700000Y-43613200D02*
X128931500Y-42381700D01*
X128931500Y-42381700D02*
X128931500Y-41280000D01*
%TO.N,Net-(U4-CE)*%
X131467500Y-39151700D02*
X131467500Y-38050000D01*
X130200000Y-40419200D02*
X131467500Y-39151700D01*
X130200000Y-47700000D02*
X130200000Y-40419200D01*
%TD*%
M02*
