%TF.GenerationSoftware,KiCad,Pcbnew,8.0.2*%
%TF.CreationDate,2024-05-20T19:48:17+02:00*%
%TF.ProjectId,MOS6566_Adapter,4d4f5336-3536-4365-9f41-646170746572,rev?*%
%TF.SameCoordinates,Original*%
%TF.FileFunction,Legend,Bot*%
%TF.FilePolarity,Positive*%
%FSLAX46Y46*%
G04 Gerber Fmt 4.6, Leading zero omitted, Abs format (unit mm)*
G04 Created by KiCad (PCBNEW 8.0.2) date 2024-05-20 19:48:17*
%MOMM*%
%LPD*%
G01*
G04 APERTURE LIST*
%ADD10C,0.100000*%
%ADD11C,0.150000*%
%ADD12C,0.120000*%
G04 APERTURE END LIST*
D10*
X124151797Y-63570550D02*
X124113702Y-63494360D01*
X124113702Y-63494360D02*
X124075606Y-63456265D01*
X124075606Y-63456265D02*
X123999416Y-63418169D01*
X123999416Y-63418169D02*
X123961321Y-63418169D01*
X123961321Y-63418169D02*
X123885130Y-63456265D01*
X123885130Y-63456265D02*
X123847035Y-63494360D01*
X123847035Y-63494360D02*
X123808940Y-63570550D01*
X123808940Y-63570550D02*
X123808940Y-63722931D01*
X123808940Y-63722931D02*
X123847035Y-63799122D01*
X123847035Y-63799122D02*
X123885130Y-63837217D01*
X123885130Y-63837217D02*
X123961321Y-63875312D01*
X123961321Y-63875312D02*
X123999416Y-63875312D01*
X123999416Y-63875312D02*
X124075606Y-63837217D01*
X124075606Y-63837217D02*
X124113702Y-63799122D01*
X124113702Y-63799122D02*
X124151797Y-63722931D01*
X124151797Y-63722931D02*
X124151797Y-63570550D01*
X124151797Y-63570550D02*
X124189892Y-63494360D01*
X124189892Y-63494360D02*
X124227987Y-63456265D01*
X124227987Y-63456265D02*
X124304178Y-63418169D01*
X124304178Y-63418169D02*
X124456559Y-63418169D01*
X124456559Y-63418169D02*
X124532749Y-63456265D01*
X124532749Y-63456265D02*
X124570845Y-63494360D01*
X124570845Y-63494360D02*
X124608940Y-63570550D01*
X124608940Y-63570550D02*
X124608940Y-63722931D01*
X124608940Y-63722931D02*
X124570845Y-63799122D01*
X124570845Y-63799122D02*
X124532749Y-63837217D01*
X124532749Y-63837217D02*
X124456559Y-63875312D01*
X124456559Y-63875312D02*
X124304178Y-63875312D01*
X124304178Y-63875312D02*
X124227987Y-63837217D01*
X124227987Y-63837217D02*
X124189892Y-63799122D01*
X124189892Y-63799122D02*
X124151797Y-63722931D01*
X123808940Y-64599122D02*
X123808940Y-64218170D01*
X123808940Y-64218170D02*
X124189892Y-64180074D01*
X124189892Y-64180074D02*
X124151797Y-64218170D01*
X124151797Y-64218170D02*
X124113702Y-64294360D01*
X124113702Y-64294360D02*
X124113702Y-64484836D01*
X124113702Y-64484836D02*
X124151797Y-64561027D01*
X124151797Y-64561027D02*
X124189892Y-64599122D01*
X124189892Y-64599122D02*
X124266083Y-64637217D01*
X124266083Y-64637217D02*
X124456559Y-64637217D01*
X124456559Y-64637217D02*
X124532749Y-64599122D01*
X124532749Y-64599122D02*
X124570845Y-64561027D01*
X124570845Y-64561027D02*
X124608940Y-64484836D01*
X124608940Y-64484836D02*
X124608940Y-64294360D01*
X124608940Y-64294360D02*
X124570845Y-64218170D01*
X124570845Y-64218170D02*
X124532749Y-64180074D01*
X123808940Y-65322932D02*
X123808940Y-65170551D01*
X123808940Y-65170551D02*
X123847035Y-65094360D01*
X123847035Y-65094360D02*
X123885130Y-65056265D01*
X123885130Y-65056265D02*
X123999416Y-64980075D01*
X123999416Y-64980075D02*
X124151797Y-64941979D01*
X124151797Y-64941979D02*
X124456559Y-64941979D01*
X124456559Y-64941979D02*
X124532749Y-64980075D01*
X124532749Y-64980075D02*
X124570845Y-65018170D01*
X124570845Y-65018170D02*
X124608940Y-65094360D01*
X124608940Y-65094360D02*
X124608940Y-65246741D01*
X124608940Y-65246741D02*
X124570845Y-65322932D01*
X124570845Y-65322932D02*
X124532749Y-65361027D01*
X124532749Y-65361027D02*
X124456559Y-65399122D01*
X124456559Y-65399122D02*
X124266083Y-65399122D01*
X124266083Y-65399122D02*
X124189892Y-65361027D01*
X124189892Y-65361027D02*
X124151797Y-65322932D01*
X124151797Y-65322932D02*
X124113702Y-65246741D01*
X124113702Y-65246741D02*
X124113702Y-65094360D01*
X124113702Y-65094360D02*
X124151797Y-65018170D01*
X124151797Y-65018170D02*
X124189892Y-64980075D01*
X124189892Y-64980075D02*
X124266083Y-64941979D01*
X123885130Y-65703884D02*
X123847035Y-65741980D01*
X123847035Y-65741980D02*
X123808940Y-65818170D01*
X123808940Y-65818170D02*
X123808940Y-66008646D01*
X123808940Y-66008646D02*
X123847035Y-66084837D01*
X123847035Y-66084837D02*
X123885130Y-66122932D01*
X123885130Y-66122932D02*
X123961321Y-66161027D01*
X123961321Y-66161027D02*
X124037511Y-66161027D01*
X124037511Y-66161027D02*
X124151797Y-66122932D01*
X124151797Y-66122932D02*
X124608940Y-65665789D01*
X124608940Y-65665789D02*
X124608940Y-66161027D01*
X124189892Y-66503885D02*
X124189892Y-67113409D01*
X124418464Y-67113409D02*
X124418464Y-66503885D01*
X123808940Y-67722932D02*
X124380368Y-67722932D01*
X124380368Y-67722932D02*
X124494654Y-67684837D01*
X124494654Y-67684837D02*
X124570845Y-67608646D01*
X124570845Y-67608646D02*
X124608940Y-67494361D01*
X124608940Y-67494361D02*
X124608940Y-67418170D01*
X124608940Y-68103885D02*
X123808940Y-68103885D01*
X123808940Y-68103885D02*
X123808940Y-68408647D01*
X123808940Y-68408647D02*
X123847035Y-68484837D01*
X123847035Y-68484837D02*
X123885130Y-68522932D01*
X123885130Y-68522932D02*
X123961321Y-68561028D01*
X123961321Y-68561028D02*
X124075606Y-68561028D01*
X124075606Y-68561028D02*
X124151797Y-68522932D01*
X124151797Y-68522932D02*
X124189892Y-68484837D01*
X124189892Y-68484837D02*
X124227987Y-68408647D01*
X124227987Y-68408647D02*
X124227987Y-68103885D01*
X124608940Y-69322932D02*
X124608940Y-68865789D01*
X124608940Y-69094361D02*
X123808940Y-69094361D01*
X123808940Y-69094361D02*
X123923225Y-69018170D01*
X123923225Y-69018170D02*
X123999416Y-68941980D01*
X123999416Y-68941980D02*
X124037511Y-68865789D01*
X124570845Y-70618171D02*
X124608940Y-70541980D01*
X124608940Y-70541980D02*
X124608940Y-70389599D01*
X124608940Y-70389599D02*
X124570845Y-70313409D01*
X124570845Y-70313409D02*
X124532749Y-70275314D01*
X124532749Y-70275314D02*
X124456559Y-70237218D01*
X124456559Y-70237218D02*
X124227987Y-70237218D01*
X124227987Y-70237218D02*
X124151797Y-70275314D01*
X124151797Y-70275314D02*
X124113702Y-70313409D01*
X124113702Y-70313409D02*
X124075606Y-70389599D01*
X124075606Y-70389599D02*
X124075606Y-70541980D01*
X124075606Y-70541980D02*
X124113702Y-70618171D01*
X124608940Y-71075313D02*
X124570845Y-70999123D01*
X124570845Y-70999123D02*
X124494654Y-70961028D01*
X124494654Y-70961028D02*
X123808940Y-70961028D01*
X124608940Y-71494361D02*
X124570845Y-71418171D01*
X124570845Y-71418171D02*
X124532749Y-71380076D01*
X124532749Y-71380076D02*
X124456559Y-71341980D01*
X124456559Y-71341980D02*
X124227987Y-71341980D01*
X124227987Y-71341980D02*
X124151797Y-71380076D01*
X124151797Y-71380076D02*
X124113702Y-71418171D01*
X124113702Y-71418171D02*
X124075606Y-71494361D01*
X124075606Y-71494361D02*
X124075606Y-71608647D01*
X124075606Y-71608647D02*
X124113702Y-71684838D01*
X124113702Y-71684838D02*
X124151797Y-71722933D01*
X124151797Y-71722933D02*
X124227987Y-71761028D01*
X124227987Y-71761028D02*
X124456559Y-71761028D01*
X124456559Y-71761028D02*
X124532749Y-71722933D01*
X124532749Y-71722933D02*
X124570845Y-71684838D01*
X124570845Y-71684838D02*
X124608940Y-71608647D01*
X124608940Y-71608647D02*
X124608940Y-71494361D01*
X124570845Y-72065790D02*
X124608940Y-72141981D01*
X124608940Y-72141981D02*
X124608940Y-72294362D01*
X124608940Y-72294362D02*
X124570845Y-72370552D01*
X124570845Y-72370552D02*
X124494654Y-72408648D01*
X124494654Y-72408648D02*
X124456559Y-72408648D01*
X124456559Y-72408648D02*
X124380368Y-72370552D01*
X124380368Y-72370552D02*
X124342273Y-72294362D01*
X124342273Y-72294362D02*
X124342273Y-72180076D01*
X124342273Y-72180076D02*
X124304178Y-72103886D01*
X124304178Y-72103886D02*
X124227987Y-72065790D01*
X124227987Y-72065790D02*
X124189892Y-72065790D01*
X124189892Y-72065790D02*
X124113702Y-72103886D01*
X124113702Y-72103886D02*
X124075606Y-72180076D01*
X124075606Y-72180076D02*
X124075606Y-72294362D01*
X124075606Y-72294362D02*
X124113702Y-72370552D01*
X124570845Y-73056267D02*
X124608940Y-72980076D01*
X124608940Y-72980076D02*
X124608940Y-72827695D01*
X124608940Y-72827695D02*
X124570845Y-72751505D01*
X124570845Y-72751505D02*
X124494654Y-72713409D01*
X124494654Y-72713409D02*
X124189892Y-72713409D01*
X124189892Y-72713409D02*
X124113702Y-72751505D01*
X124113702Y-72751505D02*
X124075606Y-72827695D01*
X124075606Y-72827695D02*
X124075606Y-72980076D01*
X124075606Y-72980076D02*
X124113702Y-73056267D01*
X124113702Y-73056267D02*
X124189892Y-73094362D01*
X124189892Y-73094362D02*
X124266083Y-73094362D01*
X124266083Y-73094362D02*
X124342273Y-72713409D01*
X124608940Y-73780076D02*
X123808940Y-73780076D01*
X124570845Y-73780076D02*
X124608940Y-73703885D01*
X124608940Y-73703885D02*
X124608940Y-73551504D01*
X124608940Y-73551504D02*
X124570845Y-73475314D01*
X124570845Y-73475314D02*
X124532749Y-73437219D01*
X124532749Y-73437219D02*
X124456559Y-73399123D01*
X124456559Y-73399123D02*
X124227987Y-73399123D01*
X124227987Y-73399123D02*
X124151797Y-73437219D01*
X124151797Y-73437219D02*
X124113702Y-73475314D01*
X124113702Y-73475314D02*
X124075606Y-73551504D01*
X124075606Y-73551504D02*
X124075606Y-73703885D01*
X124075606Y-73703885D02*
X124113702Y-73780076D01*
X123770845Y-74732457D02*
X124799416Y-74046743D01*
X123808940Y-75227695D02*
X124380368Y-75227695D01*
X124380368Y-75227695D02*
X124494654Y-75189600D01*
X124494654Y-75189600D02*
X124570845Y-75113409D01*
X124570845Y-75113409D02*
X124608940Y-74999124D01*
X124608940Y-74999124D02*
X124608940Y-74922933D01*
X124608940Y-75608648D02*
X123808940Y-75608648D01*
X123808940Y-75608648D02*
X123808940Y-75913410D01*
X123808940Y-75913410D02*
X123847035Y-75989600D01*
X123847035Y-75989600D02*
X123885130Y-76027695D01*
X123885130Y-76027695D02*
X123961321Y-76065791D01*
X123961321Y-76065791D02*
X124075606Y-76065791D01*
X124075606Y-76065791D02*
X124151797Y-76027695D01*
X124151797Y-76027695D02*
X124189892Y-75989600D01*
X124189892Y-75989600D02*
X124227987Y-75913410D01*
X124227987Y-75913410D02*
X124227987Y-75608648D01*
X123885130Y-76370552D02*
X123847035Y-76408648D01*
X123847035Y-76408648D02*
X123808940Y-76484838D01*
X123808940Y-76484838D02*
X123808940Y-76675314D01*
X123808940Y-76675314D02*
X123847035Y-76751505D01*
X123847035Y-76751505D02*
X123885130Y-76789600D01*
X123885130Y-76789600D02*
X123961321Y-76827695D01*
X123961321Y-76827695D02*
X124037511Y-76827695D01*
X124037511Y-76827695D02*
X124151797Y-76789600D01*
X124151797Y-76789600D02*
X124608940Y-76332457D01*
X124608940Y-76332457D02*
X124608940Y-76827695D01*
X124608940Y-77894362D02*
X124570845Y-77818172D01*
X124570845Y-77818172D02*
X124532749Y-77780077D01*
X124532749Y-77780077D02*
X124456559Y-77741981D01*
X124456559Y-77741981D02*
X124227987Y-77741981D01*
X124227987Y-77741981D02*
X124151797Y-77780077D01*
X124151797Y-77780077D02*
X124113702Y-77818172D01*
X124113702Y-77818172D02*
X124075606Y-77894362D01*
X124075606Y-77894362D02*
X124075606Y-78008648D01*
X124075606Y-78008648D02*
X124113702Y-78084839D01*
X124113702Y-78084839D02*
X124151797Y-78122934D01*
X124151797Y-78122934D02*
X124227987Y-78161029D01*
X124227987Y-78161029D02*
X124456559Y-78161029D01*
X124456559Y-78161029D02*
X124532749Y-78122934D01*
X124532749Y-78122934D02*
X124570845Y-78084839D01*
X124570845Y-78084839D02*
X124608940Y-78008648D01*
X124608940Y-78008648D02*
X124608940Y-77894362D01*
X124075606Y-78503887D02*
X124875606Y-78503887D01*
X124113702Y-78503887D02*
X124075606Y-78580077D01*
X124075606Y-78580077D02*
X124075606Y-78732458D01*
X124075606Y-78732458D02*
X124113702Y-78808649D01*
X124113702Y-78808649D02*
X124151797Y-78846744D01*
X124151797Y-78846744D02*
X124227987Y-78884839D01*
X124227987Y-78884839D02*
X124456559Y-78884839D01*
X124456559Y-78884839D02*
X124532749Y-78846744D01*
X124532749Y-78846744D02*
X124570845Y-78808649D01*
X124570845Y-78808649D02*
X124608940Y-78732458D01*
X124608940Y-78732458D02*
X124608940Y-78580077D01*
X124608940Y-78580077D02*
X124570845Y-78503887D01*
X124570845Y-79532459D02*
X124608940Y-79456268D01*
X124608940Y-79456268D02*
X124608940Y-79303887D01*
X124608940Y-79303887D02*
X124570845Y-79227697D01*
X124570845Y-79227697D02*
X124494654Y-79189601D01*
X124494654Y-79189601D02*
X124189892Y-79189601D01*
X124189892Y-79189601D02*
X124113702Y-79227697D01*
X124113702Y-79227697D02*
X124075606Y-79303887D01*
X124075606Y-79303887D02*
X124075606Y-79456268D01*
X124075606Y-79456268D02*
X124113702Y-79532459D01*
X124113702Y-79532459D02*
X124189892Y-79570554D01*
X124189892Y-79570554D02*
X124266083Y-79570554D01*
X124266083Y-79570554D02*
X124342273Y-79189601D01*
X124075606Y-79913411D02*
X124608940Y-79913411D01*
X124151797Y-79913411D02*
X124113702Y-79951506D01*
X124113702Y-79951506D02*
X124075606Y-80027696D01*
X124075606Y-80027696D02*
X124075606Y-80141982D01*
X124075606Y-80141982D02*
X124113702Y-80218173D01*
X124113702Y-80218173D02*
X124189892Y-80256268D01*
X124189892Y-80256268D02*
X124608940Y-80256268D01*
X125096895Y-63799122D02*
X125096895Y-63646741D01*
X125096895Y-63646741D02*
X125134990Y-63570550D01*
X125134990Y-63570550D02*
X125173085Y-63532455D01*
X125173085Y-63532455D02*
X125287371Y-63456265D01*
X125287371Y-63456265D02*
X125439752Y-63418169D01*
X125439752Y-63418169D02*
X125744514Y-63418169D01*
X125744514Y-63418169D02*
X125820704Y-63456265D01*
X125820704Y-63456265D02*
X125858800Y-63494360D01*
X125858800Y-63494360D02*
X125896895Y-63570550D01*
X125896895Y-63570550D02*
X125896895Y-63722931D01*
X125896895Y-63722931D02*
X125858800Y-63799122D01*
X125858800Y-63799122D02*
X125820704Y-63837217D01*
X125820704Y-63837217D02*
X125744514Y-63875312D01*
X125744514Y-63875312D02*
X125554038Y-63875312D01*
X125554038Y-63875312D02*
X125477847Y-63837217D01*
X125477847Y-63837217D02*
X125439752Y-63799122D01*
X125439752Y-63799122D02*
X125401657Y-63722931D01*
X125401657Y-63722931D02*
X125401657Y-63570550D01*
X125401657Y-63570550D02*
X125439752Y-63494360D01*
X125439752Y-63494360D02*
X125477847Y-63456265D01*
X125477847Y-63456265D02*
X125554038Y-63418169D01*
X125096895Y-64599122D02*
X125096895Y-64218170D01*
X125096895Y-64218170D02*
X125477847Y-64180074D01*
X125477847Y-64180074D02*
X125439752Y-64218170D01*
X125439752Y-64218170D02*
X125401657Y-64294360D01*
X125401657Y-64294360D02*
X125401657Y-64484836D01*
X125401657Y-64484836D02*
X125439752Y-64561027D01*
X125439752Y-64561027D02*
X125477847Y-64599122D01*
X125477847Y-64599122D02*
X125554038Y-64637217D01*
X125554038Y-64637217D02*
X125744514Y-64637217D01*
X125744514Y-64637217D02*
X125820704Y-64599122D01*
X125820704Y-64599122D02*
X125858800Y-64561027D01*
X125858800Y-64561027D02*
X125896895Y-64484836D01*
X125896895Y-64484836D02*
X125896895Y-64294360D01*
X125896895Y-64294360D02*
X125858800Y-64218170D01*
X125858800Y-64218170D02*
X125820704Y-64180074D01*
X125096895Y-65322932D02*
X125096895Y-65170551D01*
X125096895Y-65170551D02*
X125134990Y-65094360D01*
X125134990Y-65094360D02*
X125173085Y-65056265D01*
X125173085Y-65056265D02*
X125287371Y-64980075D01*
X125287371Y-64980075D02*
X125439752Y-64941979D01*
X125439752Y-64941979D02*
X125744514Y-64941979D01*
X125744514Y-64941979D02*
X125820704Y-64980075D01*
X125820704Y-64980075D02*
X125858800Y-65018170D01*
X125858800Y-65018170D02*
X125896895Y-65094360D01*
X125896895Y-65094360D02*
X125896895Y-65246741D01*
X125896895Y-65246741D02*
X125858800Y-65322932D01*
X125858800Y-65322932D02*
X125820704Y-65361027D01*
X125820704Y-65361027D02*
X125744514Y-65399122D01*
X125744514Y-65399122D02*
X125554038Y-65399122D01*
X125554038Y-65399122D02*
X125477847Y-65361027D01*
X125477847Y-65361027D02*
X125439752Y-65322932D01*
X125439752Y-65322932D02*
X125401657Y-65246741D01*
X125401657Y-65246741D02*
X125401657Y-65094360D01*
X125401657Y-65094360D02*
X125439752Y-65018170D01*
X125439752Y-65018170D02*
X125477847Y-64980075D01*
X125477847Y-64980075D02*
X125554038Y-64941979D01*
X125096895Y-65665789D02*
X125096895Y-66199123D01*
X125096895Y-66199123D02*
X125896895Y-65856265D01*
X125477847Y-66503885D02*
X125477847Y-67113409D01*
X125706419Y-67113409D02*
X125706419Y-66503885D01*
X125096895Y-67722932D02*
X125668323Y-67722932D01*
X125668323Y-67722932D02*
X125782609Y-67684837D01*
X125782609Y-67684837D02*
X125858800Y-67608646D01*
X125858800Y-67608646D02*
X125896895Y-67494361D01*
X125896895Y-67494361D02*
X125896895Y-67418170D01*
X125896895Y-68103885D02*
X125096895Y-68103885D01*
X125096895Y-68103885D02*
X125096895Y-68408647D01*
X125096895Y-68408647D02*
X125134990Y-68484837D01*
X125134990Y-68484837D02*
X125173085Y-68522932D01*
X125173085Y-68522932D02*
X125249276Y-68561028D01*
X125249276Y-68561028D02*
X125363561Y-68561028D01*
X125363561Y-68561028D02*
X125439752Y-68522932D01*
X125439752Y-68522932D02*
X125477847Y-68484837D01*
X125477847Y-68484837D02*
X125515942Y-68408647D01*
X125515942Y-68408647D02*
X125515942Y-68103885D01*
X125896895Y-69322932D02*
X125896895Y-68865789D01*
X125896895Y-69094361D02*
X125096895Y-69094361D01*
X125096895Y-69094361D02*
X125211180Y-69018170D01*
X125211180Y-69018170D02*
X125287371Y-68941980D01*
X125287371Y-68941980D02*
X125325466Y-68865789D01*
X125896895Y-70389599D02*
X125858800Y-70313409D01*
X125858800Y-70313409D02*
X125820704Y-70275314D01*
X125820704Y-70275314D02*
X125744514Y-70237218D01*
X125744514Y-70237218D02*
X125515942Y-70237218D01*
X125515942Y-70237218D02*
X125439752Y-70275314D01*
X125439752Y-70275314D02*
X125401657Y-70313409D01*
X125401657Y-70313409D02*
X125363561Y-70389599D01*
X125363561Y-70389599D02*
X125363561Y-70503885D01*
X125363561Y-70503885D02*
X125401657Y-70580076D01*
X125401657Y-70580076D02*
X125439752Y-70618171D01*
X125439752Y-70618171D02*
X125515942Y-70656266D01*
X125515942Y-70656266D02*
X125744514Y-70656266D01*
X125744514Y-70656266D02*
X125820704Y-70618171D01*
X125820704Y-70618171D02*
X125858800Y-70580076D01*
X125858800Y-70580076D02*
X125896895Y-70503885D01*
X125896895Y-70503885D02*
X125896895Y-70389599D01*
X125363561Y-70999124D02*
X126163561Y-70999124D01*
X125401657Y-70999124D02*
X125363561Y-71075314D01*
X125363561Y-71075314D02*
X125363561Y-71227695D01*
X125363561Y-71227695D02*
X125401657Y-71303886D01*
X125401657Y-71303886D02*
X125439752Y-71341981D01*
X125439752Y-71341981D02*
X125515942Y-71380076D01*
X125515942Y-71380076D02*
X125744514Y-71380076D01*
X125744514Y-71380076D02*
X125820704Y-71341981D01*
X125820704Y-71341981D02*
X125858800Y-71303886D01*
X125858800Y-71303886D02*
X125896895Y-71227695D01*
X125896895Y-71227695D02*
X125896895Y-71075314D01*
X125896895Y-71075314D02*
X125858800Y-70999124D01*
X125858800Y-72027696D02*
X125896895Y-71951505D01*
X125896895Y-71951505D02*
X125896895Y-71799124D01*
X125896895Y-71799124D02*
X125858800Y-71722934D01*
X125858800Y-71722934D02*
X125782609Y-71684838D01*
X125782609Y-71684838D02*
X125477847Y-71684838D01*
X125477847Y-71684838D02*
X125401657Y-71722934D01*
X125401657Y-71722934D02*
X125363561Y-71799124D01*
X125363561Y-71799124D02*
X125363561Y-71951505D01*
X125363561Y-71951505D02*
X125401657Y-72027696D01*
X125401657Y-72027696D02*
X125477847Y-72065791D01*
X125477847Y-72065791D02*
X125554038Y-72065791D01*
X125554038Y-72065791D02*
X125630228Y-71684838D01*
X125363561Y-72408648D02*
X125896895Y-72408648D01*
X125439752Y-72408648D02*
X125401657Y-72446743D01*
X125401657Y-72446743D02*
X125363561Y-72522933D01*
X125363561Y-72522933D02*
X125363561Y-72637219D01*
X125363561Y-72637219D02*
X125401657Y-72713410D01*
X125401657Y-72713410D02*
X125477847Y-72751505D01*
X125477847Y-72751505D02*
X125896895Y-72751505D01*
X125058800Y-73703886D02*
X126087371Y-73018172D01*
X125096895Y-74199124D02*
X125668323Y-74199124D01*
X125668323Y-74199124D02*
X125782609Y-74161029D01*
X125782609Y-74161029D02*
X125858800Y-74084838D01*
X125858800Y-74084838D02*
X125896895Y-73970553D01*
X125896895Y-73970553D02*
X125896895Y-73894362D01*
X125896895Y-74580077D02*
X125096895Y-74580077D01*
X125096895Y-74580077D02*
X125096895Y-74884839D01*
X125096895Y-74884839D02*
X125134990Y-74961029D01*
X125134990Y-74961029D02*
X125173085Y-74999124D01*
X125173085Y-74999124D02*
X125249276Y-75037220D01*
X125249276Y-75037220D02*
X125363561Y-75037220D01*
X125363561Y-75037220D02*
X125439752Y-74999124D01*
X125439752Y-74999124D02*
X125477847Y-74961029D01*
X125477847Y-74961029D02*
X125515942Y-74884839D01*
X125515942Y-74884839D02*
X125515942Y-74580077D01*
X125173085Y-75341981D02*
X125134990Y-75380077D01*
X125134990Y-75380077D02*
X125096895Y-75456267D01*
X125096895Y-75456267D02*
X125096895Y-75646743D01*
X125096895Y-75646743D02*
X125134990Y-75722934D01*
X125134990Y-75722934D02*
X125173085Y-75761029D01*
X125173085Y-75761029D02*
X125249276Y-75799124D01*
X125249276Y-75799124D02*
X125325466Y-75799124D01*
X125325466Y-75799124D02*
X125439752Y-75761029D01*
X125439752Y-75761029D02*
X125896895Y-75303886D01*
X125896895Y-75303886D02*
X125896895Y-75799124D01*
X125858800Y-77094363D02*
X125896895Y-77018172D01*
X125896895Y-77018172D02*
X125896895Y-76865791D01*
X125896895Y-76865791D02*
X125858800Y-76789601D01*
X125858800Y-76789601D02*
X125820704Y-76751506D01*
X125820704Y-76751506D02*
X125744514Y-76713410D01*
X125744514Y-76713410D02*
X125515942Y-76713410D01*
X125515942Y-76713410D02*
X125439752Y-76751506D01*
X125439752Y-76751506D02*
X125401657Y-76789601D01*
X125401657Y-76789601D02*
X125363561Y-76865791D01*
X125363561Y-76865791D02*
X125363561Y-77018172D01*
X125363561Y-77018172D02*
X125401657Y-77094363D01*
X125896895Y-77551505D02*
X125858800Y-77475315D01*
X125858800Y-77475315D02*
X125782609Y-77437220D01*
X125782609Y-77437220D02*
X125096895Y-77437220D01*
X125896895Y-77970553D02*
X125858800Y-77894363D01*
X125858800Y-77894363D02*
X125820704Y-77856268D01*
X125820704Y-77856268D02*
X125744514Y-77818172D01*
X125744514Y-77818172D02*
X125515942Y-77818172D01*
X125515942Y-77818172D02*
X125439752Y-77856268D01*
X125439752Y-77856268D02*
X125401657Y-77894363D01*
X125401657Y-77894363D02*
X125363561Y-77970553D01*
X125363561Y-77970553D02*
X125363561Y-78084839D01*
X125363561Y-78084839D02*
X125401657Y-78161030D01*
X125401657Y-78161030D02*
X125439752Y-78199125D01*
X125439752Y-78199125D02*
X125515942Y-78237220D01*
X125515942Y-78237220D02*
X125744514Y-78237220D01*
X125744514Y-78237220D02*
X125820704Y-78199125D01*
X125820704Y-78199125D02*
X125858800Y-78161030D01*
X125858800Y-78161030D02*
X125896895Y-78084839D01*
X125896895Y-78084839D02*
X125896895Y-77970553D01*
X125858800Y-78541982D02*
X125896895Y-78618173D01*
X125896895Y-78618173D02*
X125896895Y-78770554D01*
X125896895Y-78770554D02*
X125858800Y-78846744D01*
X125858800Y-78846744D02*
X125782609Y-78884840D01*
X125782609Y-78884840D02*
X125744514Y-78884840D01*
X125744514Y-78884840D02*
X125668323Y-78846744D01*
X125668323Y-78846744D02*
X125630228Y-78770554D01*
X125630228Y-78770554D02*
X125630228Y-78656268D01*
X125630228Y-78656268D02*
X125592133Y-78580078D01*
X125592133Y-78580078D02*
X125515942Y-78541982D01*
X125515942Y-78541982D02*
X125477847Y-78541982D01*
X125477847Y-78541982D02*
X125401657Y-78580078D01*
X125401657Y-78580078D02*
X125363561Y-78656268D01*
X125363561Y-78656268D02*
X125363561Y-78770554D01*
X125363561Y-78770554D02*
X125401657Y-78846744D01*
X125858800Y-79532459D02*
X125896895Y-79456268D01*
X125896895Y-79456268D02*
X125896895Y-79303887D01*
X125896895Y-79303887D02*
X125858800Y-79227697D01*
X125858800Y-79227697D02*
X125782609Y-79189601D01*
X125782609Y-79189601D02*
X125477847Y-79189601D01*
X125477847Y-79189601D02*
X125401657Y-79227697D01*
X125401657Y-79227697D02*
X125363561Y-79303887D01*
X125363561Y-79303887D02*
X125363561Y-79456268D01*
X125363561Y-79456268D02*
X125401657Y-79532459D01*
X125401657Y-79532459D02*
X125477847Y-79570554D01*
X125477847Y-79570554D02*
X125554038Y-79570554D01*
X125554038Y-79570554D02*
X125630228Y-79189601D01*
X125896895Y-80256268D02*
X125096895Y-80256268D01*
X125858800Y-80256268D02*
X125896895Y-80180077D01*
X125896895Y-80180077D02*
X125896895Y-80027696D01*
X125896895Y-80027696D02*
X125858800Y-79951506D01*
X125858800Y-79951506D02*
X125820704Y-79913411D01*
X125820704Y-79913411D02*
X125744514Y-79875315D01*
X125744514Y-79875315D02*
X125515942Y-79875315D01*
X125515942Y-79875315D02*
X125439752Y-79913411D01*
X125439752Y-79913411D02*
X125401657Y-79951506D01*
X125401657Y-79951506D02*
X125363561Y-80027696D01*
X125363561Y-80027696D02*
X125363561Y-80180077D01*
X125363561Y-80180077D02*
X125401657Y-80256268D01*
D11*
X125983333Y-86654819D02*
X125983333Y-87369104D01*
X125983333Y-87369104D02*
X126030952Y-87511961D01*
X126030952Y-87511961D02*
X126126190Y-87607200D01*
X126126190Y-87607200D02*
X126269047Y-87654819D01*
X126269047Y-87654819D02*
X126364285Y-87654819D01*
X125507142Y-87654819D02*
X125507142Y-86654819D01*
X125507142Y-86654819D02*
X125126190Y-86654819D01*
X125126190Y-86654819D02*
X125030952Y-86702438D01*
X125030952Y-86702438D02*
X124983333Y-86750057D01*
X124983333Y-86750057D02*
X124935714Y-86845295D01*
X124935714Y-86845295D02*
X124935714Y-86988152D01*
X124935714Y-86988152D02*
X124983333Y-87083390D01*
X124983333Y-87083390D02*
X125030952Y-87131009D01*
X125030952Y-87131009D02*
X125126190Y-87178628D01*
X125126190Y-87178628D02*
X125507142Y-87178628D01*
X124554761Y-86750057D02*
X124507142Y-86702438D01*
X124507142Y-86702438D02*
X124411904Y-86654819D01*
X124411904Y-86654819D02*
X124173809Y-86654819D01*
X124173809Y-86654819D02*
X124078571Y-86702438D01*
X124078571Y-86702438D02*
X124030952Y-86750057D01*
X124030952Y-86750057D02*
X123983333Y-86845295D01*
X123983333Y-86845295D02*
X123983333Y-86940533D01*
X123983333Y-86940533D02*
X124030952Y-87083390D01*
X124030952Y-87083390D02*
X124602380Y-87654819D01*
X124602380Y-87654819D02*
X123983333Y-87654819D01*
X125983333Y-83254819D02*
X125983333Y-83969104D01*
X125983333Y-83969104D02*
X126030952Y-84111961D01*
X126030952Y-84111961D02*
X126126190Y-84207200D01*
X126126190Y-84207200D02*
X126269047Y-84254819D01*
X126269047Y-84254819D02*
X126364285Y-84254819D01*
X125507142Y-84254819D02*
X125507142Y-83254819D01*
X125507142Y-83254819D02*
X125126190Y-83254819D01*
X125126190Y-83254819D02*
X125030952Y-83302438D01*
X125030952Y-83302438D02*
X124983333Y-83350057D01*
X124983333Y-83350057D02*
X124935714Y-83445295D01*
X124935714Y-83445295D02*
X124935714Y-83588152D01*
X124935714Y-83588152D02*
X124983333Y-83683390D01*
X124983333Y-83683390D02*
X125030952Y-83731009D01*
X125030952Y-83731009D02*
X125126190Y-83778628D01*
X125126190Y-83778628D02*
X125507142Y-83778628D01*
X123983333Y-84254819D02*
X124554761Y-84254819D01*
X124269047Y-84254819D02*
X124269047Y-83254819D01*
X124269047Y-83254819D02*
X124364285Y-83397676D01*
X124364285Y-83397676D02*
X124459523Y-83492914D01*
X124459523Y-83492914D02*
X124554761Y-83540533D01*
D12*
%TO.C,JP2*%
X123750000Y-85700000D02*
X123750000Y-85100000D01*
X124450000Y-84400000D02*
X125850000Y-84400000D01*
X125850000Y-86400000D02*
X124450000Y-86400000D01*
X126550000Y-85100000D02*
X126550000Y-85700000D01*
X123750000Y-85100000D02*
G75*
G02*
X124450000Y-84400000I699999J1D01*
G01*
X124450000Y-86400000D02*
G75*
G02*
X123750000Y-85700000I-1J699999D01*
G01*
X125850000Y-84400000D02*
G75*
G02*
X126550000Y-85100000I0J-700000D01*
G01*
X126550000Y-85700000D02*
G75*
G02*
X125850000Y-86400000I-700000J0D01*
G01*
%TO.C,JP1*%
X123750000Y-82300000D02*
X123750000Y-81700000D01*
X124450000Y-81000000D02*
X125850000Y-81000000D01*
X125850000Y-83000000D02*
X124450000Y-83000000D01*
X126550000Y-81700000D02*
X126550000Y-82300000D01*
X123750000Y-81700000D02*
G75*
G02*
X124450000Y-81000000I699999J1D01*
G01*
X124450000Y-83000000D02*
G75*
G02*
X123750000Y-82300000I-1J699999D01*
G01*
X125850000Y-81000000D02*
G75*
G02*
X126550000Y-81700000I0J-700000D01*
G01*
X126550000Y-82300000D02*
G75*
G02*
X125850000Y-83000000I-700000J0D01*
G01*
%TD*%
M02*
