%TF.GenerationSoftware,KiCad,Pcbnew,8.0.2*%
%TF.CreationDate,2024-05-20T19:48:17+02:00*%
%TF.ProjectId,MOS6566_Adapter,4d4f5336-3536-4365-9f41-646170746572,rev?*%
%TF.SameCoordinates,Original*%
%TF.FileFunction,Soldermask,Top*%
%TF.FilePolarity,Negative*%
%FSLAX46Y46*%
G04 Gerber Fmt 4.6, Leading zero omitted, Abs format (unit mm)*
G04 Created by KiCad (PCBNEW 8.0.2) date 2024-05-20 19:48:17*
%MOMM*%
%LPD*%
G01*
G04 APERTURE LIST*
%ADD10C,1.600000*%
%ADD11R,1.600000X1.600000*%
%ADD12O,1.600000X1.600000*%
G04 APERTURE END LIST*
D10*
%TO.C,C3*%
X107700000Y-52300000D03*
X110200000Y-52300000D03*
%TD*%
%TO.C,C1*%
X136700000Y-46400000D03*
X136700000Y-43900000D03*
%TD*%
%TO.C,C2*%
X136700000Y-35500000D03*
X136700000Y-33000000D03*
%TD*%
D11*
%TO.C,U3*%
X105100000Y-54880000D03*
D12*
X105100000Y-57420000D03*
X105100000Y-59960000D03*
X105100000Y-62500000D03*
X105100000Y-65040000D03*
X105100000Y-67580000D03*
X105100000Y-70120000D03*
X112720000Y-70120000D03*
X112720000Y-67580000D03*
X112720000Y-65040000D03*
X112720000Y-62500000D03*
X112720000Y-59960000D03*
X112720000Y-57420000D03*
X112720000Y-54880000D03*
%TD*%
D11*
%TO.C,U2*%
X116000000Y-54882000D03*
D12*
X116000000Y-57422000D03*
X116000000Y-59962000D03*
X116000000Y-62502000D03*
X116000000Y-65042000D03*
X116000000Y-67582000D03*
X116000000Y-70122000D03*
X116000000Y-72662000D03*
X116000000Y-75202000D03*
X116000000Y-77742000D03*
X116000000Y-80282000D03*
X116000000Y-82822000D03*
X116000000Y-85362000D03*
X116000000Y-87902000D03*
X116000000Y-90442000D03*
X116000000Y-92982000D03*
X116000000Y-95522000D03*
X116000000Y-98062000D03*
X116000000Y-100602000D03*
X116000000Y-103142000D03*
X131240000Y-103142000D03*
X131240000Y-100602000D03*
X131240000Y-98062000D03*
X131240000Y-95522000D03*
X131240000Y-92982000D03*
X131240000Y-90442000D03*
X131240000Y-87902000D03*
X131240000Y-85362000D03*
X131240000Y-82822000D03*
X131240000Y-80282000D03*
X131240000Y-77742000D03*
X131240000Y-75202000D03*
X131240000Y-72662000D03*
X131240000Y-70122000D03*
X131240000Y-67582000D03*
X131240000Y-65042000D03*
X131240000Y-62502000D03*
X131240000Y-59962000D03*
X131240000Y-57422000D03*
X131240000Y-54882000D03*
%TD*%
D11*
%TO.C,U6*%
X134011500Y-41280000D03*
D12*
X131471500Y-41280000D03*
X128931500Y-41280000D03*
X126391500Y-41280000D03*
X123851500Y-41280000D03*
X121311500Y-41280000D03*
X118771500Y-41280000D03*
X116231500Y-41280000D03*
X113691500Y-41280000D03*
X111151500Y-41280000D03*
X111151500Y-48900000D03*
X113691500Y-48900000D03*
X116231500Y-48900000D03*
X118771500Y-48900000D03*
X121311500Y-48900000D03*
X123851500Y-48900000D03*
X126391500Y-48900000D03*
X128931500Y-48900000D03*
X131471500Y-48900000D03*
X134011500Y-48900000D03*
%TD*%
D11*
%TO.C,U5*%
X105084000Y-75250000D03*
D12*
X105084000Y-77790000D03*
X105084000Y-80330000D03*
X105084000Y-82870000D03*
X105084000Y-85410000D03*
X105084000Y-87950000D03*
X105084000Y-90490000D03*
X105084000Y-93030000D03*
X105084000Y-95570000D03*
X105084000Y-98110000D03*
X112704000Y-98110000D03*
X112704000Y-95570000D03*
X112704000Y-93030000D03*
X112704000Y-90490000D03*
X112704000Y-87950000D03*
X112704000Y-85410000D03*
X112704000Y-82870000D03*
X112704000Y-80330000D03*
X112704000Y-77790000D03*
X112704000Y-75250000D03*
%TD*%
D11*
%TO.C,U1*%
X118660000Y-54882000D03*
D12*
X118660000Y-57422000D03*
X118660000Y-59962000D03*
X118660000Y-62502000D03*
X118660000Y-65042000D03*
X118660000Y-67582000D03*
X118660000Y-70122000D03*
X118660000Y-72662000D03*
X118660000Y-75202000D03*
X118660000Y-77742000D03*
X118660000Y-80282000D03*
X118660000Y-82822000D03*
X118660000Y-85362000D03*
X118660000Y-87902000D03*
X118660000Y-90442000D03*
X118660000Y-92982000D03*
X118660000Y-95522000D03*
X118660000Y-98062000D03*
X118660000Y-100602000D03*
X118660000Y-103142000D03*
X133900000Y-103142000D03*
X133900000Y-100602000D03*
X133900000Y-98062000D03*
X133900000Y-95522000D03*
X133900000Y-92982000D03*
X133900000Y-90442000D03*
X133900000Y-87902000D03*
X133900000Y-85362000D03*
X133900000Y-82822000D03*
X133900000Y-80282000D03*
X133900000Y-77742000D03*
X133900000Y-75202000D03*
X133900000Y-72662000D03*
X133900000Y-70122000D03*
X133900000Y-67582000D03*
X133900000Y-65042000D03*
X133900000Y-62502000D03*
X133900000Y-59962000D03*
X133900000Y-57422000D03*
X133900000Y-54882000D03*
%TD*%
D10*
%TO.C,C4*%
X107600000Y-72700000D03*
X110100000Y-72700000D03*
%TD*%
D11*
%TO.C,U4*%
X134007500Y-30430000D03*
D12*
X131467500Y-30430000D03*
X128927500Y-30430000D03*
X126387500Y-30430000D03*
X123847500Y-30430000D03*
X121307500Y-30430000D03*
X118767500Y-30430000D03*
X116227500Y-30430000D03*
X113687500Y-30430000D03*
X111147500Y-30430000D03*
X111147500Y-38050000D03*
X113687500Y-38050000D03*
X116227500Y-38050000D03*
X118767500Y-38050000D03*
X121307500Y-38050000D03*
X123847500Y-38050000D03*
X126387500Y-38050000D03*
X128927500Y-38050000D03*
X131467500Y-38050000D03*
X134007500Y-38050000D03*
%TD*%
M02*
