%TF.GenerationSoftware,KiCad,Pcbnew,8.0.2*%
%TF.CreationDate,2024-05-20T19:48:17+02:00*%
%TF.ProjectId,MOS6566_Adapter,4d4f5336-3536-4365-9f41-646170746572,rev?*%
%TF.SameCoordinates,Original*%
%TF.FileFunction,Legend,Top*%
%TF.FilePolarity,Positive*%
%FSLAX46Y46*%
G04 Gerber Fmt 4.6, Leading zero omitted, Abs format (unit mm)*
G04 Created by KiCad (PCBNEW 8.0.2) date 2024-05-20 19:48:17*
%MOMM*%
%LPD*%
G01*
G04 APERTURE LIST*
%ADD10C,0.150000*%
%ADD11C,0.120000*%
G04 APERTURE END LIST*
D10*
X108566667Y-50886104D02*
X108528571Y-50924200D01*
X108528571Y-50924200D02*
X108414286Y-50962295D01*
X108414286Y-50962295D02*
X108338095Y-50962295D01*
X108338095Y-50962295D02*
X108223809Y-50924200D01*
X108223809Y-50924200D02*
X108147619Y-50848009D01*
X108147619Y-50848009D02*
X108109524Y-50771819D01*
X108109524Y-50771819D02*
X108071428Y-50619438D01*
X108071428Y-50619438D02*
X108071428Y-50505152D01*
X108071428Y-50505152D02*
X108109524Y-50352771D01*
X108109524Y-50352771D02*
X108147619Y-50276580D01*
X108147619Y-50276580D02*
X108223809Y-50200390D01*
X108223809Y-50200390D02*
X108338095Y-50162295D01*
X108338095Y-50162295D02*
X108414286Y-50162295D01*
X108414286Y-50162295D02*
X108528571Y-50200390D01*
X108528571Y-50200390D02*
X108566667Y-50238485D01*
X108833333Y-50162295D02*
X109328571Y-50162295D01*
X109328571Y-50162295D02*
X109061905Y-50467057D01*
X109061905Y-50467057D02*
X109176190Y-50467057D01*
X109176190Y-50467057D02*
X109252381Y-50505152D01*
X109252381Y-50505152D02*
X109290476Y-50543247D01*
X109290476Y-50543247D02*
X109328571Y-50619438D01*
X109328571Y-50619438D02*
X109328571Y-50809914D01*
X109328571Y-50809914D02*
X109290476Y-50886104D01*
X109290476Y-50886104D02*
X109252381Y-50924200D01*
X109252381Y-50924200D02*
X109176190Y-50962295D01*
X109176190Y-50962295D02*
X108947619Y-50962295D01*
X108947619Y-50962295D02*
X108871428Y-50924200D01*
X108871428Y-50924200D02*
X108833333Y-50886104D01*
X136566667Y-48286104D02*
X136528571Y-48324200D01*
X136528571Y-48324200D02*
X136414286Y-48362295D01*
X136414286Y-48362295D02*
X136338095Y-48362295D01*
X136338095Y-48362295D02*
X136223809Y-48324200D01*
X136223809Y-48324200D02*
X136147619Y-48248009D01*
X136147619Y-48248009D02*
X136109524Y-48171819D01*
X136109524Y-48171819D02*
X136071428Y-48019438D01*
X136071428Y-48019438D02*
X136071428Y-47905152D01*
X136071428Y-47905152D02*
X136109524Y-47752771D01*
X136109524Y-47752771D02*
X136147619Y-47676580D01*
X136147619Y-47676580D02*
X136223809Y-47600390D01*
X136223809Y-47600390D02*
X136338095Y-47562295D01*
X136338095Y-47562295D02*
X136414286Y-47562295D01*
X136414286Y-47562295D02*
X136528571Y-47600390D01*
X136528571Y-47600390D02*
X136566667Y-47638485D01*
X137328571Y-48362295D02*
X136871428Y-48362295D01*
X137100000Y-48362295D02*
X137100000Y-47562295D01*
X137100000Y-47562295D02*
X137023809Y-47676580D01*
X137023809Y-47676580D02*
X136947619Y-47752771D01*
X136947619Y-47752771D02*
X136871428Y-47790866D01*
X136566667Y-37186104D02*
X136528571Y-37224200D01*
X136528571Y-37224200D02*
X136414286Y-37262295D01*
X136414286Y-37262295D02*
X136338095Y-37262295D01*
X136338095Y-37262295D02*
X136223809Y-37224200D01*
X136223809Y-37224200D02*
X136147619Y-37148009D01*
X136147619Y-37148009D02*
X136109524Y-37071819D01*
X136109524Y-37071819D02*
X136071428Y-36919438D01*
X136071428Y-36919438D02*
X136071428Y-36805152D01*
X136071428Y-36805152D02*
X136109524Y-36652771D01*
X136109524Y-36652771D02*
X136147619Y-36576580D01*
X136147619Y-36576580D02*
X136223809Y-36500390D01*
X136223809Y-36500390D02*
X136338095Y-36462295D01*
X136338095Y-36462295D02*
X136414286Y-36462295D01*
X136414286Y-36462295D02*
X136528571Y-36500390D01*
X136528571Y-36500390D02*
X136566667Y-36538485D01*
X136871428Y-36538485D02*
X136909524Y-36500390D01*
X136909524Y-36500390D02*
X136985714Y-36462295D01*
X136985714Y-36462295D02*
X137176190Y-36462295D01*
X137176190Y-36462295D02*
X137252381Y-36500390D01*
X137252381Y-36500390D02*
X137290476Y-36538485D01*
X137290476Y-36538485D02*
X137328571Y-36614676D01*
X137328571Y-36614676D02*
X137328571Y-36690866D01*
X137328571Y-36690866D02*
X137290476Y-36805152D01*
X137290476Y-36805152D02*
X136833333Y-37262295D01*
X136833333Y-37262295D02*
X137328571Y-37262295D01*
X108138095Y-54854819D02*
X108138095Y-55664342D01*
X108138095Y-55664342D02*
X108185714Y-55759580D01*
X108185714Y-55759580D02*
X108233333Y-55807200D01*
X108233333Y-55807200D02*
X108328571Y-55854819D01*
X108328571Y-55854819D02*
X108519047Y-55854819D01*
X108519047Y-55854819D02*
X108614285Y-55807200D01*
X108614285Y-55807200D02*
X108661904Y-55759580D01*
X108661904Y-55759580D02*
X108709523Y-55664342D01*
X108709523Y-55664342D02*
X108709523Y-54854819D01*
X109090476Y-54854819D02*
X109709523Y-54854819D01*
X109709523Y-54854819D02*
X109376190Y-55235771D01*
X109376190Y-55235771D02*
X109519047Y-55235771D01*
X109519047Y-55235771D02*
X109614285Y-55283390D01*
X109614285Y-55283390D02*
X109661904Y-55331009D01*
X109661904Y-55331009D02*
X109709523Y-55426247D01*
X109709523Y-55426247D02*
X109709523Y-55664342D01*
X109709523Y-55664342D02*
X109661904Y-55759580D01*
X109661904Y-55759580D02*
X109614285Y-55807200D01*
X109614285Y-55807200D02*
X109519047Y-55854819D01*
X109519047Y-55854819D02*
X109233333Y-55854819D01*
X109233333Y-55854819D02*
X109138095Y-55807200D01*
X109138095Y-55807200D02*
X109090476Y-55759580D01*
X108320819Y-63966666D02*
X108320819Y-63300000D01*
X108320819Y-63300000D02*
X109320819Y-63728571D01*
X108654152Y-62490476D02*
X109320819Y-62490476D01*
X108273200Y-62728571D02*
X108987485Y-62966666D01*
X108987485Y-62966666D02*
X108987485Y-62347619D01*
X109320819Y-61966666D02*
X108320819Y-61966666D01*
X108797009Y-61966666D02*
X108797009Y-61395238D01*
X109320819Y-61395238D02*
X108320819Y-61395238D01*
X109225580Y-60347619D02*
X109273200Y-60395238D01*
X109273200Y-60395238D02*
X109320819Y-60538095D01*
X109320819Y-60538095D02*
X109320819Y-60633333D01*
X109320819Y-60633333D02*
X109273200Y-60776190D01*
X109273200Y-60776190D02*
X109177961Y-60871428D01*
X109177961Y-60871428D02*
X109082723Y-60919047D01*
X109082723Y-60919047D02*
X108892247Y-60966666D01*
X108892247Y-60966666D02*
X108749390Y-60966666D01*
X108749390Y-60966666D02*
X108558914Y-60919047D01*
X108558914Y-60919047D02*
X108463676Y-60871428D01*
X108463676Y-60871428D02*
X108368438Y-60776190D01*
X108368438Y-60776190D02*
X108320819Y-60633333D01*
X108320819Y-60633333D02*
X108320819Y-60538095D01*
X108320819Y-60538095D02*
X108368438Y-60395238D01*
X108368438Y-60395238D02*
X108416057Y-60347619D01*
X108320819Y-60061904D02*
X108320819Y-59490476D01*
X109320819Y-59776190D02*
X108320819Y-59776190D01*
X108320819Y-58966666D02*
X108320819Y-58871428D01*
X108320819Y-58871428D02*
X108368438Y-58776190D01*
X108368438Y-58776190D02*
X108416057Y-58728571D01*
X108416057Y-58728571D02*
X108511295Y-58680952D01*
X108511295Y-58680952D02*
X108701771Y-58633333D01*
X108701771Y-58633333D02*
X108939866Y-58633333D01*
X108939866Y-58633333D02*
X109130342Y-58680952D01*
X109130342Y-58680952D02*
X109225580Y-58728571D01*
X109225580Y-58728571D02*
X109273200Y-58776190D01*
X109273200Y-58776190D02*
X109320819Y-58871428D01*
X109320819Y-58871428D02*
X109320819Y-58966666D01*
X109320819Y-58966666D02*
X109273200Y-59061904D01*
X109273200Y-59061904D02*
X109225580Y-59109523D01*
X109225580Y-59109523D02*
X109130342Y-59157142D01*
X109130342Y-59157142D02*
X108939866Y-59204761D01*
X108939866Y-59204761D02*
X108701771Y-59204761D01*
X108701771Y-59204761D02*
X108511295Y-59157142D01*
X108511295Y-59157142D02*
X108416057Y-59109523D01*
X108416057Y-59109523D02*
X108368438Y-59061904D01*
X108368438Y-59061904D02*
X108320819Y-58966666D01*
X108654152Y-57776190D02*
X109320819Y-57776190D01*
X108273200Y-58014285D02*
X108987485Y-58252380D01*
X108987485Y-58252380D02*
X108987485Y-57633333D01*
X122858095Y-52006819D02*
X122858095Y-52816342D01*
X122858095Y-52816342D02*
X122905714Y-52911580D01*
X122905714Y-52911580D02*
X122953333Y-52959200D01*
X122953333Y-52959200D02*
X123048571Y-53006819D01*
X123048571Y-53006819D02*
X123239047Y-53006819D01*
X123239047Y-53006819D02*
X123334285Y-52959200D01*
X123334285Y-52959200D02*
X123381904Y-52911580D01*
X123381904Y-52911580D02*
X123429523Y-52816342D01*
X123429523Y-52816342D02*
X123429523Y-52006819D01*
X123858095Y-52102057D02*
X123905714Y-52054438D01*
X123905714Y-52054438D02*
X124000952Y-52006819D01*
X124000952Y-52006819D02*
X124239047Y-52006819D01*
X124239047Y-52006819D02*
X124334285Y-52054438D01*
X124334285Y-52054438D02*
X124381904Y-52102057D01*
X124381904Y-52102057D02*
X124429523Y-52197295D01*
X124429523Y-52197295D02*
X124429523Y-52292533D01*
X124429523Y-52292533D02*
X124381904Y-52435390D01*
X124381904Y-52435390D02*
X123810476Y-53006819D01*
X123810476Y-53006819D02*
X124429523Y-53006819D01*
X128454819Y-76738094D02*
X127454819Y-76738094D01*
X127454819Y-76738094D02*
X128169104Y-76404761D01*
X128169104Y-76404761D02*
X127454819Y-76071428D01*
X127454819Y-76071428D02*
X128454819Y-76071428D01*
X127454819Y-75404761D02*
X127454819Y-75214285D01*
X127454819Y-75214285D02*
X127502438Y-75119047D01*
X127502438Y-75119047D02*
X127597676Y-75023809D01*
X127597676Y-75023809D02*
X127788152Y-74976190D01*
X127788152Y-74976190D02*
X128121485Y-74976190D01*
X128121485Y-74976190D02*
X128311961Y-75023809D01*
X128311961Y-75023809D02*
X128407200Y-75119047D01*
X128407200Y-75119047D02*
X128454819Y-75214285D01*
X128454819Y-75214285D02*
X128454819Y-75404761D01*
X128454819Y-75404761D02*
X128407200Y-75499999D01*
X128407200Y-75499999D02*
X128311961Y-75595237D01*
X128311961Y-75595237D02*
X128121485Y-75642856D01*
X128121485Y-75642856D02*
X127788152Y-75642856D01*
X127788152Y-75642856D02*
X127597676Y-75595237D01*
X127597676Y-75595237D02*
X127502438Y-75499999D01*
X127502438Y-75499999D02*
X127454819Y-75404761D01*
X128407200Y-74595237D02*
X128454819Y-74452380D01*
X128454819Y-74452380D02*
X128454819Y-74214285D01*
X128454819Y-74214285D02*
X128407200Y-74119047D01*
X128407200Y-74119047D02*
X128359580Y-74071428D01*
X128359580Y-74071428D02*
X128264342Y-74023809D01*
X128264342Y-74023809D02*
X128169104Y-74023809D01*
X128169104Y-74023809D02*
X128073866Y-74071428D01*
X128073866Y-74071428D02*
X128026247Y-74119047D01*
X128026247Y-74119047D02*
X127978628Y-74214285D01*
X127978628Y-74214285D02*
X127931009Y-74404761D01*
X127931009Y-74404761D02*
X127883390Y-74499999D01*
X127883390Y-74499999D02*
X127835771Y-74547618D01*
X127835771Y-74547618D02*
X127740533Y-74595237D01*
X127740533Y-74595237D02*
X127645295Y-74595237D01*
X127645295Y-74595237D02*
X127550057Y-74547618D01*
X127550057Y-74547618D02*
X127502438Y-74499999D01*
X127502438Y-74499999D02*
X127454819Y-74404761D01*
X127454819Y-74404761D02*
X127454819Y-74166666D01*
X127454819Y-74166666D02*
X127502438Y-74023809D01*
X127454819Y-73166666D02*
X127454819Y-73357142D01*
X127454819Y-73357142D02*
X127502438Y-73452380D01*
X127502438Y-73452380D02*
X127550057Y-73499999D01*
X127550057Y-73499999D02*
X127692914Y-73595237D01*
X127692914Y-73595237D02*
X127883390Y-73642856D01*
X127883390Y-73642856D02*
X128264342Y-73642856D01*
X128264342Y-73642856D02*
X128359580Y-73595237D01*
X128359580Y-73595237D02*
X128407200Y-73547618D01*
X128407200Y-73547618D02*
X128454819Y-73452380D01*
X128454819Y-73452380D02*
X128454819Y-73261904D01*
X128454819Y-73261904D02*
X128407200Y-73166666D01*
X128407200Y-73166666D02*
X128359580Y-73119047D01*
X128359580Y-73119047D02*
X128264342Y-73071428D01*
X128264342Y-73071428D02*
X128026247Y-73071428D01*
X128026247Y-73071428D02*
X127931009Y-73119047D01*
X127931009Y-73119047D02*
X127883390Y-73166666D01*
X127883390Y-73166666D02*
X127835771Y-73261904D01*
X127835771Y-73261904D02*
X127835771Y-73452380D01*
X127835771Y-73452380D02*
X127883390Y-73547618D01*
X127883390Y-73547618D02*
X127931009Y-73595237D01*
X127931009Y-73595237D02*
X128026247Y-73642856D01*
X127454819Y-72166666D02*
X127454819Y-72642856D01*
X127454819Y-72642856D02*
X127931009Y-72690475D01*
X127931009Y-72690475D02*
X127883390Y-72642856D01*
X127883390Y-72642856D02*
X127835771Y-72547618D01*
X127835771Y-72547618D02*
X127835771Y-72309523D01*
X127835771Y-72309523D02*
X127883390Y-72214285D01*
X127883390Y-72214285D02*
X127931009Y-72166666D01*
X127931009Y-72166666D02*
X128026247Y-72119047D01*
X128026247Y-72119047D02*
X128264342Y-72119047D01*
X128264342Y-72119047D02*
X128359580Y-72166666D01*
X128359580Y-72166666D02*
X128407200Y-72214285D01*
X128407200Y-72214285D02*
X128454819Y-72309523D01*
X128454819Y-72309523D02*
X128454819Y-72547618D01*
X128454819Y-72547618D02*
X128407200Y-72642856D01*
X128407200Y-72642856D02*
X128359580Y-72690475D01*
X127454819Y-71261904D02*
X127454819Y-71452380D01*
X127454819Y-71452380D02*
X127502438Y-71547618D01*
X127502438Y-71547618D02*
X127550057Y-71595237D01*
X127550057Y-71595237D02*
X127692914Y-71690475D01*
X127692914Y-71690475D02*
X127883390Y-71738094D01*
X127883390Y-71738094D02*
X128264342Y-71738094D01*
X128264342Y-71738094D02*
X128359580Y-71690475D01*
X128359580Y-71690475D02*
X128407200Y-71642856D01*
X128407200Y-71642856D02*
X128454819Y-71547618D01*
X128454819Y-71547618D02*
X128454819Y-71357142D01*
X128454819Y-71357142D02*
X128407200Y-71261904D01*
X128407200Y-71261904D02*
X128359580Y-71214285D01*
X128359580Y-71214285D02*
X128264342Y-71166666D01*
X128264342Y-71166666D02*
X128026247Y-71166666D01*
X128026247Y-71166666D02*
X127931009Y-71214285D01*
X127931009Y-71214285D02*
X127883390Y-71261904D01*
X127883390Y-71261904D02*
X127835771Y-71357142D01*
X127835771Y-71357142D02*
X127835771Y-71547618D01*
X127835771Y-71547618D02*
X127883390Y-71642856D01*
X127883390Y-71642856D02*
X127931009Y-71690475D01*
X127931009Y-71690475D02*
X128026247Y-71738094D01*
X127454819Y-70833332D02*
X127454819Y-70166666D01*
X127454819Y-70166666D02*
X128454819Y-70595237D01*
X127407200Y-69071428D02*
X128692914Y-69928570D01*
X128454819Y-68738094D02*
X127454819Y-68738094D01*
X127454819Y-68738094D02*
X128169104Y-68404761D01*
X128169104Y-68404761D02*
X127454819Y-68071428D01*
X127454819Y-68071428D02*
X128454819Y-68071428D01*
X127454819Y-67404761D02*
X127454819Y-67214285D01*
X127454819Y-67214285D02*
X127502438Y-67119047D01*
X127502438Y-67119047D02*
X127597676Y-67023809D01*
X127597676Y-67023809D02*
X127788152Y-66976190D01*
X127788152Y-66976190D02*
X128121485Y-66976190D01*
X128121485Y-66976190D02*
X128311961Y-67023809D01*
X128311961Y-67023809D02*
X128407200Y-67119047D01*
X128407200Y-67119047D02*
X128454819Y-67214285D01*
X128454819Y-67214285D02*
X128454819Y-67404761D01*
X128454819Y-67404761D02*
X128407200Y-67499999D01*
X128407200Y-67499999D02*
X128311961Y-67595237D01*
X128311961Y-67595237D02*
X128121485Y-67642856D01*
X128121485Y-67642856D02*
X127788152Y-67642856D01*
X127788152Y-67642856D02*
X127597676Y-67595237D01*
X127597676Y-67595237D02*
X127502438Y-67499999D01*
X127502438Y-67499999D02*
X127454819Y-67404761D01*
X128407200Y-66595237D02*
X128454819Y-66452380D01*
X128454819Y-66452380D02*
X128454819Y-66214285D01*
X128454819Y-66214285D02*
X128407200Y-66119047D01*
X128407200Y-66119047D02*
X128359580Y-66071428D01*
X128359580Y-66071428D02*
X128264342Y-66023809D01*
X128264342Y-66023809D02*
X128169104Y-66023809D01*
X128169104Y-66023809D02*
X128073866Y-66071428D01*
X128073866Y-66071428D02*
X128026247Y-66119047D01*
X128026247Y-66119047D02*
X127978628Y-66214285D01*
X127978628Y-66214285D02*
X127931009Y-66404761D01*
X127931009Y-66404761D02*
X127883390Y-66499999D01*
X127883390Y-66499999D02*
X127835771Y-66547618D01*
X127835771Y-66547618D02*
X127740533Y-66595237D01*
X127740533Y-66595237D02*
X127645295Y-66595237D01*
X127645295Y-66595237D02*
X127550057Y-66547618D01*
X127550057Y-66547618D02*
X127502438Y-66499999D01*
X127502438Y-66499999D02*
X127454819Y-66404761D01*
X127454819Y-66404761D02*
X127454819Y-66166666D01*
X127454819Y-66166666D02*
X127502438Y-66023809D01*
X127883390Y-65452380D02*
X127835771Y-65547618D01*
X127835771Y-65547618D02*
X127788152Y-65595237D01*
X127788152Y-65595237D02*
X127692914Y-65642856D01*
X127692914Y-65642856D02*
X127645295Y-65642856D01*
X127645295Y-65642856D02*
X127550057Y-65595237D01*
X127550057Y-65595237D02*
X127502438Y-65547618D01*
X127502438Y-65547618D02*
X127454819Y-65452380D01*
X127454819Y-65452380D02*
X127454819Y-65261904D01*
X127454819Y-65261904D02*
X127502438Y-65166666D01*
X127502438Y-65166666D02*
X127550057Y-65119047D01*
X127550057Y-65119047D02*
X127645295Y-65071428D01*
X127645295Y-65071428D02*
X127692914Y-65071428D01*
X127692914Y-65071428D02*
X127788152Y-65119047D01*
X127788152Y-65119047D02*
X127835771Y-65166666D01*
X127835771Y-65166666D02*
X127883390Y-65261904D01*
X127883390Y-65261904D02*
X127883390Y-65452380D01*
X127883390Y-65452380D02*
X127931009Y-65547618D01*
X127931009Y-65547618D02*
X127978628Y-65595237D01*
X127978628Y-65595237D02*
X128073866Y-65642856D01*
X128073866Y-65642856D02*
X128264342Y-65642856D01*
X128264342Y-65642856D02*
X128359580Y-65595237D01*
X128359580Y-65595237D02*
X128407200Y-65547618D01*
X128407200Y-65547618D02*
X128454819Y-65452380D01*
X128454819Y-65452380D02*
X128454819Y-65261904D01*
X128454819Y-65261904D02*
X128407200Y-65166666D01*
X128407200Y-65166666D02*
X128359580Y-65119047D01*
X128359580Y-65119047D02*
X128264342Y-65071428D01*
X128264342Y-65071428D02*
X128073866Y-65071428D01*
X128073866Y-65071428D02*
X127978628Y-65119047D01*
X127978628Y-65119047D02*
X127931009Y-65166666D01*
X127931009Y-65166666D02*
X127883390Y-65261904D01*
X127454819Y-64166666D02*
X127454819Y-64642856D01*
X127454819Y-64642856D02*
X127931009Y-64690475D01*
X127931009Y-64690475D02*
X127883390Y-64642856D01*
X127883390Y-64642856D02*
X127835771Y-64547618D01*
X127835771Y-64547618D02*
X127835771Y-64309523D01*
X127835771Y-64309523D02*
X127883390Y-64214285D01*
X127883390Y-64214285D02*
X127931009Y-64166666D01*
X127931009Y-64166666D02*
X128026247Y-64119047D01*
X128026247Y-64119047D02*
X128264342Y-64119047D01*
X128264342Y-64119047D02*
X128359580Y-64166666D01*
X128359580Y-64166666D02*
X128407200Y-64214285D01*
X128407200Y-64214285D02*
X128454819Y-64309523D01*
X128454819Y-64309523D02*
X128454819Y-64547618D01*
X128454819Y-64547618D02*
X128407200Y-64642856D01*
X128407200Y-64642856D02*
X128359580Y-64690475D01*
X127454819Y-63261904D02*
X127454819Y-63452380D01*
X127454819Y-63452380D02*
X127502438Y-63547618D01*
X127502438Y-63547618D02*
X127550057Y-63595237D01*
X127550057Y-63595237D02*
X127692914Y-63690475D01*
X127692914Y-63690475D02*
X127883390Y-63738094D01*
X127883390Y-63738094D02*
X128264342Y-63738094D01*
X128264342Y-63738094D02*
X128359580Y-63690475D01*
X128359580Y-63690475D02*
X128407200Y-63642856D01*
X128407200Y-63642856D02*
X128454819Y-63547618D01*
X128454819Y-63547618D02*
X128454819Y-63357142D01*
X128454819Y-63357142D02*
X128407200Y-63261904D01*
X128407200Y-63261904D02*
X128359580Y-63214285D01*
X128359580Y-63214285D02*
X128264342Y-63166666D01*
X128264342Y-63166666D02*
X128026247Y-63166666D01*
X128026247Y-63166666D02*
X127931009Y-63214285D01*
X127931009Y-63214285D02*
X127883390Y-63261904D01*
X127883390Y-63261904D02*
X127835771Y-63357142D01*
X127835771Y-63357142D02*
X127835771Y-63547618D01*
X127835771Y-63547618D02*
X127883390Y-63642856D01*
X127883390Y-63642856D02*
X127931009Y-63690475D01*
X127931009Y-63690475D02*
X128026247Y-63738094D01*
X127550057Y-62785713D02*
X127502438Y-62738094D01*
X127502438Y-62738094D02*
X127454819Y-62642856D01*
X127454819Y-62642856D02*
X127454819Y-62404761D01*
X127454819Y-62404761D02*
X127502438Y-62309523D01*
X127502438Y-62309523D02*
X127550057Y-62261904D01*
X127550057Y-62261904D02*
X127645295Y-62214285D01*
X127645295Y-62214285D02*
X127740533Y-62214285D01*
X127740533Y-62214285D02*
X127883390Y-62261904D01*
X127883390Y-62261904D02*
X128454819Y-62833332D01*
X128454819Y-62833332D02*
X128454819Y-62214285D01*
X133054819Y-45861904D02*
X133864342Y-45861904D01*
X133864342Y-45861904D02*
X133959580Y-45814285D01*
X133959580Y-45814285D02*
X134007200Y-45766666D01*
X134007200Y-45766666D02*
X134054819Y-45671428D01*
X134054819Y-45671428D02*
X134054819Y-45480952D01*
X134054819Y-45480952D02*
X134007200Y-45385714D01*
X134007200Y-45385714D02*
X133959580Y-45338095D01*
X133959580Y-45338095D02*
X133864342Y-45290476D01*
X133864342Y-45290476D02*
X133054819Y-45290476D01*
X133054819Y-44385714D02*
X133054819Y-44576190D01*
X133054819Y-44576190D02*
X133102438Y-44671428D01*
X133102438Y-44671428D02*
X133150057Y-44719047D01*
X133150057Y-44719047D02*
X133292914Y-44814285D01*
X133292914Y-44814285D02*
X133483390Y-44861904D01*
X133483390Y-44861904D02*
X133864342Y-44861904D01*
X133864342Y-44861904D02*
X133959580Y-44814285D01*
X133959580Y-44814285D02*
X134007200Y-44766666D01*
X134007200Y-44766666D02*
X134054819Y-44671428D01*
X134054819Y-44671428D02*
X134054819Y-44480952D01*
X134054819Y-44480952D02*
X134007200Y-44385714D01*
X134007200Y-44385714D02*
X133959580Y-44338095D01*
X133959580Y-44338095D02*
X133864342Y-44290476D01*
X133864342Y-44290476D02*
X133626247Y-44290476D01*
X133626247Y-44290476D02*
X133531009Y-44338095D01*
X133531009Y-44338095D02*
X133483390Y-44385714D01*
X133483390Y-44385714D02*
X133435771Y-44480952D01*
X133435771Y-44480952D02*
X133435771Y-44671428D01*
X133435771Y-44671428D02*
X133483390Y-44766666D01*
X133483390Y-44766666D02*
X133531009Y-44814285D01*
X133531009Y-44814285D02*
X133626247Y-44861904D01*
X118068643Y-44544819D02*
X118735309Y-44544819D01*
X118735309Y-44544819D02*
X118306738Y-45544819D01*
X119544833Y-44878152D02*
X119544833Y-45544819D01*
X119306738Y-44497200D02*
X119068643Y-45211485D01*
X119068643Y-45211485D02*
X119687690Y-45211485D01*
X120068643Y-45544819D02*
X120068643Y-44544819D01*
X120068643Y-45021009D02*
X120640071Y-45021009D01*
X120640071Y-45544819D02*
X120640071Y-44544819D01*
X121687690Y-45449580D02*
X121640071Y-45497200D01*
X121640071Y-45497200D02*
X121497214Y-45544819D01*
X121497214Y-45544819D02*
X121401976Y-45544819D01*
X121401976Y-45544819D02*
X121259119Y-45497200D01*
X121259119Y-45497200D02*
X121163881Y-45401961D01*
X121163881Y-45401961D02*
X121116262Y-45306723D01*
X121116262Y-45306723D02*
X121068643Y-45116247D01*
X121068643Y-45116247D02*
X121068643Y-44973390D01*
X121068643Y-44973390D02*
X121116262Y-44782914D01*
X121116262Y-44782914D02*
X121163881Y-44687676D01*
X121163881Y-44687676D02*
X121259119Y-44592438D01*
X121259119Y-44592438D02*
X121401976Y-44544819D01*
X121401976Y-44544819D02*
X121497214Y-44544819D01*
X121497214Y-44544819D02*
X121640071Y-44592438D01*
X121640071Y-44592438D02*
X121687690Y-44640057D01*
X121973405Y-44544819D02*
X122544833Y-44544819D01*
X122259119Y-45544819D02*
X122259119Y-44544819D01*
X123354357Y-44544819D02*
X122878167Y-44544819D01*
X122878167Y-44544819D02*
X122830548Y-45021009D01*
X122830548Y-45021009D02*
X122878167Y-44973390D01*
X122878167Y-44973390D02*
X122973405Y-44925771D01*
X122973405Y-44925771D02*
X123211500Y-44925771D01*
X123211500Y-44925771D02*
X123306738Y-44973390D01*
X123306738Y-44973390D02*
X123354357Y-45021009D01*
X123354357Y-45021009D02*
X123401976Y-45116247D01*
X123401976Y-45116247D02*
X123401976Y-45354342D01*
X123401976Y-45354342D02*
X123354357Y-45449580D01*
X123354357Y-45449580D02*
X123306738Y-45497200D01*
X123306738Y-45497200D02*
X123211500Y-45544819D01*
X123211500Y-45544819D02*
X122973405Y-45544819D01*
X122973405Y-45544819D02*
X122878167Y-45497200D01*
X122878167Y-45497200D02*
X122830548Y-45449580D01*
X123735310Y-44544819D02*
X124401976Y-44544819D01*
X124401976Y-44544819D02*
X123973405Y-45544819D01*
X124687691Y-44544819D02*
X125306738Y-44544819D01*
X125306738Y-44544819D02*
X124973405Y-44925771D01*
X124973405Y-44925771D02*
X125116262Y-44925771D01*
X125116262Y-44925771D02*
X125211500Y-44973390D01*
X125211500Y-44973390D02*
X125259119Y-45021009D01*
X125259119Y-45021009D02*
X125306738Y-45116247D01*
X125306738Y-45116247D02*
X125306738Y-45354342D01*
X125306738Y-45354342D02*
X125259119Y-45449580D01*
X125259119Y-45449580D02*
X125211500Y-45497200D01*
X125211500Y-45497200D02*
X125116262Y-45544819D01*
X125116262Y-45544819D02*
X124830548Y-45544819D01*
X124830548Y-45544819D02*
X124735310Y-45497200D01*
X124735310Y-45497200D02*
X124687691Y-45449580D01*
X108238095Y-75154819D02*
X108238095Y-75964342D01*
X108238095Y-75964342D02*
X108285714Y-76059580D01*
X108285714Y-76059580D02*
X108333333Y-76107200D01*
X108333333Y-76107200D02*
X108428571Y-76154819D01*
X108428571Y-76154819D02*
X108619047Y-76154819D01*
X108619047Y-76154819D02*
X108714285Y-76107200D01*
X108714285Y-76107200D02*
X108761904Y-76059580D01*
X108761904Y-76059580D02*
X108809523Y-75964342D01*
X108809523Y-75964342D02*
X108809523Y-75154819D01*
X109761904Y-75154819D02*
X109285714Y-75154819D01*
X109285714Y-75154819D02*
X109238095Y-75631009D01*
X109238095Y-75631009D02*
X109285714Y-75583390D01*
X109285714Y-75583390D02*
X109380952Y-75535771D01*
X109380952Y-75535771D02*
X109619047Y-75535771D01*
X109619047Y-75535771D02*
X109714285Y-75583390D01*
X109714285Y-75583390D02*
X109761904Y-75631009D01*
X109761904Y-75631009D02*
X109809523Y-75726247D01*
X109809523Y-75726247D02*
X109809523Y-75964342D01*
X109809523Y-75964342D02*
X109761904Y-76059580D01*
X109761904Y-76059580D02*
X109714285Y-76107200D01*
X109714285Y-76107200D02*
X109619047Y-76154819D01*
X109619047Y-76154819D02*
X109380952Y-76154819D01*
X109380952Y-76154819D02*
X109285714Y-76107200D01*
X109285714Y-76107200D02*
X109238095Y-76059580D01*
X108338819Y-90317856D02*
X108338819Y-89651190D01*
X108338819Y-89651190D02*
X109338819Y-90079761D01*
X108672152Y-88841666D02*
X109338819Y-88841666D01*
X108291200Y-89079761D02*
X109005485Y-89317856D01*
X109005485Y-89317856D02*
X109005485Y-88698809D01*
X109338819Y-88317856D02*
X108338819Y-88317856D01*
X108815009Y-88317856D02*
X108815009Y-87746428D01*
X109338819Y-87746428D02*
X108338819Y-87746428D01*
X109243580Y-86698809D02*
X109291200Y-86746428D01*
X109291200Y-86746428D02*
X109338819Y-86889285D01*
X109338819Y-86889285D02*
X109338819Y-86984523D01*
X109338819Y-86984523D02*
X109291200Y-87127380D01*
X109291200Y-87127380D02*
X109195961Y-87222618D01*
X109195961Y-87222618D02*
X109100723Y-87270237D01*
X109100723Y-87270237D02*
X108910247Y-87317856D01*
X108910247Y-87317856D02*
X108767390Y-87317856D01*
X108767390Y-87317856D02*
X108576914Y-87270237D01*
X108576914Y-87270237D02*
X108481676Y-87222618D01*
X108481676Y-87222618D02*
X108386438Y-87127380D01*
X108386438Y-87127380D02*
X108338819Y-86984523D01*
X108338819Y-86984523D02*
X108338819Y-86889285D01*
X108338819Y-86889285D02*
X108386438Y-86746428D01*
X108386438Y-86746428D02*
X108434057Y-86698809D01*
X108338819Y-86413094D02*
X108338819Y-85841666D01*
X109338819Y-86127380D02*
X108338819Y-86127380D01*
X108338819Y-85032142D02*
X108338819Y-85508332D01*
X108338819Y-85508332D02*
X108815009Y-85555951D01*
X108815009Y-85555951D02*
X108767390Y-85508332D01*
X108767390Y-85508332D02*
X108719771Y-85413094D01*
X108719771Y-85413094D02*
X108719771Y-85174999D01*
X108719771Y-85174999D02*
X108767390Y-85079761D01*
X108767390Y-85079761D02*
X108815009Y-85032142D01*
X108815009Y-85032142D02*
X108910247Y-84984523D01*
X108910247Y-84984523D02*
X109148342Y-84984523D01*
X109148342Y-84984523D02*
X109243580Y-85032142D01*
X109243580Y-85032142D02*
X109291200Y-85079761D01*
X109291200Y-85079761D02*
X109338819Y-85174999D01*
X109338819Y-85174999D02*
X109338819Y-85413094D01*
X109338819Y-85413094D02*
X109291200Y-85508332D01*
X109291200Y-85508332D02*
X109243580Y-85555951D01*
X108338819Y-84651189D02*
X108338819Y-83984523D01*
X108338819Y-83984523D02*
X109338819Y-84413094D01*
X108338819Y-83698808D02*
X108338819Y-83079761D01*
X108338819Y-83079761D02*
X108719771Y-83413094D01*
X108719771Y-83413094D02*
X108719771Y-83270237D01*
X108719771Y-83270237D02*
X108767390Y-83174999D01*
X108767390Y-83174999D02*
X108815009Y-83127380D01*
X108815009Y-83127380D02*
X108910247Y-83079761D01*
X108910247Y-83079761D02*
X109148342Y-83079761D01*
X109148342Y-83079761D02*
X109243580Y-83127380D01*
X109243580Y-83127380D02*
X109291200Y-83174999D01*
X109291200Y-83174999D02*
X109338819Y-83270237D01*
X109338819Y-83270237D02*
X109338819Y-83555951D01*
X109338819Y-83555951D02*
X109291200Y-83651189D01*
X109291200Y-83651189D02*
X109243580Y-83698808D01*
X125518095Y-52006819D02*
X125518095Y-52816342D01*
X125518095Y-52816342D02*
X125565714Y-52911580D01*
X125565714Y-52911580D02*
X125613333Y-52959200D01*
X125613333Y-52959200D02*
X125708571Y-53006819D01*
X125708571Y-53006819D02*
X125899047Y-53006819D01*
X125899047Y-53006819D02*
X125994285Y-52959200D01*
X125994285Y-52959200D02*
X126041904Y-52911580D01*
X126041904Y-52911580D02*
X126089523Y-52816342D01*
X126089523Y-52816342D02*
X126089523Y-52006819D01*
X127089523Y-53006819D02*
X126518095Y-53006819D01*
X126803809Y-53006819D02*
X126803809Y-52006819D01*
X126803809Y-52006819D02*
X126708571Y-52149676D01*
X126708571Y-52149676D02*
X126613333Y-52244914D01*
X126613333Y-52244914D02*
X126518095Y-52292533D01*
X122254819Y-74538094D02*
X121254819Y-74538094D01*
X121254819Y-74538094D02*
X121969104Y-74204761D01*
X121969104Y-74204761D02*
X121254819Y-73871428D01*
X121254819Y-73871428D02*
X122254819Y-73871428D01*
X121254819Y-73204761D02*
X121254819Y-73014285D01*
X121254819Y-73014285D02*
X121302438Y-72919047D01*
X121302438Y-72919047D02*
X121397676Y-72823809D01*
X121397676Y-72823809D02*
X121588152Y-72776190D01*
X121588152Y-72776190D02*
X121921485Y-72776190D01*
X121921485Y-72776190D02*
X122111961Y-72823809D01*
X122111961Y-72823809D02*
X122207200Y-72919047D01*
X122207200Y-72919047D02*
X122254819Y-73014285D01*
X122254819Y-73014285D02*
X122254819Y-73204761D01*
X122254819Y-73204761D02*
X122207200Y-73299999D01*
X122207200Y-73299999D02*
X122111961Y-73395237D01*
X122111961Y-73395237D02*
X121921485Y-73442856D01*
X121921485Y-73442856D02*
X121588152Y-73442856D01*
X121588152Y-73442856D02*
X121397676Y-73395237D01*
X121397676Y-73395237D02*
X121302438Y-73299999D01*
X121302438Y-73299999D02*
X121254819Y-73204761D01*
X122207200Y-72395237D02*
X122254819Y-72252380D01*
X122254819Y-72252380D02*
X122254819Y-72014285D01*
X122254819Y-72014285D02*
X122207200Y-71919047D01*
X122207200Y-71919047D02*
X122159580Y-71871428D01*
X122159580Y-71871428D02*
X122064342Y-71823809D01*
X122064342Y-71823809D02*
X121969104Y-71823809D01*
X121969104Y-71823809D02*
X121873866Y-71871428D01*
X121873866Y-71871428D02*
X121826247Y-71919047D01*
X121826247Y-71919047D02*
X121778628Y-72014285D01*
X121778628Y-72014285D02*
X121731009Y-72204761D01*
X121731009Y-72204761D02*
X121683390Y-72299999D01*
X121683390Y-72299999D02*
X121635771Y-72347618D01*
X121635771Y-72347618D02*
X121540533Y-72395237D01*
X121540533Y-72395237D02*
X121445295Y-72395237D01*
X121445295Y-72395237D02*
X121350057Y-72347618D01*
X121350057Y-72347618D02*
X121302438Y-72299999D01*
X121302438Y-72299999D02*
X121254819Y-72204761D01*
X121254819Y-72204761D02*
X121254819Y-71966666D01*
X121254819Y-71966666D02*
X121302438Y-71823809D01*
X121254819Y-70966666D02*
X121254819Y-71157142D01*
X121254819Y-71157142D02*
X121302438Y-71252380D01*
X121302438Y-71252380D02*
X121350057Y-71299999D01*
X121350057Y-71299999D02*
X121492914Y-71395237D01*
X121492914Y-71395237D02*
X121683390Y-71442856D01*
X121683390Y-71442856D02*
X122064342Y-71442856D01*
X122064342Y-71442856D02*
X122159580Y-71395237D01*
X122159580Y-71395237D02*
X122207200Y-71347618D01*
X122207200Y-71347618D02*
X122254819Y-71252380D01*
X122254819Y-71252380D02*
X122254819Y-71061904D01*
X122254819Y-71061904D02*
X122207200Y-70966666D01*
X122207200Y-70966666D02*
X122159580Y-70919047D01*
X122159580Y-70919047D02*
X122064342Y-70871428D01*
X122064342Y-70871428D02*
X121826247Y-70871428D01*
X121826247Y-70871428D02*
X121731009Y-70919047D01*
X121731009Y-70919047D02*
X121683390Y-70966666D01*
X121683390Y-70966666D02*
X121635771Y-71061904D01*
X121635771Y-71061904D02*
X121635771Y-71252380D01*
X121635771Y-71252380D02*
X121683390Y-71347618D01*
X121683390Y-71347618D02*
X121731009Y-71395237D01*
X121731009Y-71395237D02*
X121826247Y-71442856D01*
X121254819Y-69966666D02*
X121254819Y-70442856D01*
X121254819Y-70442856D02*
X121731009Y-70490475D01*
X121731009Y-70490475D02*
X121683390Y-70442856D01*
X121683390Y-70442856D02*
X121635771Y-70347618D01*
X121635771Y-70347618D02*
X121635771Y-70109523D01*
X121635771Y-70109523D02*
X121683390Y-70014285D01*
X121683390Y-70014285D02*
X121731009Y-69966666D01*
X121731009Y-69966666D02*
X121826247Y-69919047D01*
X121826247Y-69919047D02*
X122064342Y-69919047D01*
X122064342Y-69919047D02*
X122159580Y-69966666D01*
X122159580Y-69966666D02*
X122207200Y-70014285D01*
X122207200Y-70014285D02*
X122254819Y-70109523D01*
X122254819Y-70109523D02*
X122254819Y-70347618D01*
X122254819Y-70347618D02*
X122207200Y-70442856D01*
X122207200Y-70442856D02*
X122159580Y-70490475D01*
X121254819Y-69061904D02*
X121254819Y-69252380D01*
X121254819Y-69252380D02*
X121302438Y-69347618D01*
X121302438Y-69347618D02*
X121350057Y-69395237D01*
X121350057Y-69395237D02*
X121492914Y-69490475D01*
X121492914Y-69490475D02*
X121683390Y-69538094D01*
X121683390Y-69538094D02*
X122064342Y-69538094D01*
X122064342Y-69538094D02*
X122159580Y-69490475D01*
X122159580Y-69490475D02*
X122207200Y-69442856D01*
X122207200Y-69442856D02*
X122254819Y-69347618D01*
X122254819Y-69347618D02*
X122254819Y-69157142D01*
X122254819Y-69157142D02*
X122207200Y-69061904D01*
X122207200Y-69061904D02*
X122159580Y-69014285D01*
X122159580Y-69014285D02*
X122064342Y-68966666D01*
X122064342Y-68966666D02*
X121826247Y-68966666D01*
X121826247Y-68966666D02*
X121731009Y-69014285D01*
X121731009Y-69014285D02*
X121683390Y-69061904D01*
X121683390Y-69061904D02*
X121635771Y-69157142D01*
X121635771Y-69157142D02*
X121635771Y-69347618D01*
X121635771Y-69347618D02*
X121683390Y-69442856D01*
X121683390Y-69442856D02*
X121731009Y-69490475D01*
X121731009Y-69490475D02*
X121826247Y-69538094D01*
X121254819Y-68109523D02*
X121254819Y-68299999D01*
X121254819Y-68299999D02*
X121302438Y-68395237D01*
X121302438Y-68395237D02*
X121350057Y-68442856D01*
X121350057Y-68442856D02*
X121492914Y-68538094D01*
X121492914Y-68538094D02*
X121683390Y-68585713D01*
X121683390Y-68585713D02*
X122064342Y-68585713D01*
X122064342Y-68585713D02*
X122159580Y-68538094D01*
X122159580Y-68538094D02*
X122207200Y-68490475D01*
X122207200Y-68490475D02*
X122254819Y-68395237D01*
X122254819Y-68395237D02*
X122254819Y-68204761D01*
X122254819Y-68204761D02*
X122207200Y-68109523D01*
X122207200Y-68109523D02*
X122159580Y-68061904D01*
X122159580Y-68061904D02*
X122064342Y-68014285D01*
X122064342Y-68014285D02*
X121826247Y-68014285D01*
X121826247Y-68014285D02*
X121731009Y-68061904D01*
X121731009Y-68061904D02*
X121683390Y-68109523D01*
X121683390Y-68109523D02*
X121635771Y-68204761D01*
X121635771Y-68204761D02*
X121635771Y-68395237D01*
X121635771Y-68395237D02*
X121683390Y-68490475D01*
X121683390Y-68490475D02*
X121731009Y-68538094D01*
X121731009Y-68538094D02*
X121826247Y-68585713D01*
X108683333Y-70759580D02*
X108635714Y-70807200D01*
X108635714Y-70807200D02*
X108492857Y-70854819D01*
X108492857Y-70854819D02*
X108397619Y-70854819D01*
X108397619Y-70854819D02*
X108254762Y-70807200D01*
X108254762Y-70807200D02*
X108159524Y-70711961D01*
X108159524Y-70711961D02*
X108111905Y-70616723D01*
X108111905Y-70616723D02*
X108064286Y-70426247D01*
X108064286Y-70426247D02*
X108064286Y-70283390D01*
X108064286Y-70283390D02*
X108111905Y-70092914D01*
X108111905Y-70092914D02*
X108159524Y-69997676D01*
X108159524Y-69997676D02*
X108254762Y-69902438D01*
X108254762Y-69902438D02*
X108397619Y-69854819D01*
X108397619Y-69854819D02*
X108492857Y-69854819D01*
X108492857Y-69854819D02*
X108635714Y-69902438D01*
X108635714Y-69902438D02*
X108683333Y-69950057D01*
X109540476Y-70188152D02*
X109540476Y-70854819D01*
X109302381Y-69807200D02*
X109064286Y-70521485D01*
X109064286Y-70521485D02*
X109683333Y-70521485D01*
X133054819Y-35061904D02*
X133864342Y-35061904D01*
X133864342Y-35061904D02*
X133959580Y-35014285D01*
X133959580Y-35014285D02*
X134007200Y-34966666D01*
X134007200Y-34966666D02*
X134054819Y-34871428D01*
X134054819Y-34871428D02*
X134054819Y-34680952D01*
X134054819Y-34680952D02*
X134007200Y-34585714D01*
X134007200Y-34585714D02*
X133959580Y-34538095D01*
X133959580Y-34538095D02*
X133864342Y-34490476D01*
X133864342Y-34490476D02*
X133054819Y-34490476D01*
X133388152Y-33585714D02*
X134054819Y-33585714D01*
X133007200Y-33823809D02*
X133721485Y-34061904D01*
X133721485Y-34061904D02*
X133721485Y-33442857D01*
X118168643Y-33694819D02*
X118835309Y-33694819D01*
X118835309Y-33694819D02*
X118406738Y-34694819D01*
X119644833Y-34028152D02*
X119644833Y-34694819D01*
X119406738Y-33647200D02*
X119168643Y-34361485D01*
X119168643Y-34361485D02*
X119787690Y-34361485D01*
X120168643Y-34694819D02*
X120168643Y-33694819D01*
X120168643Y-34171009D02*
X120740071Y-34171009D01*
X120740071Y-34694819D02*
X120740071Y-33694819D01*
X121787690Y-34599580D02*
X121740071Y-34647200D01*
X121740071Y-34647200D02*
X121597214Y-34694819D01*
X121597214Y-34694819D02*
X121501976Y-34694819D01*
X121501976Y-34694819D02*
X121359119Y-34647200D01*
X121359119Y-34647200D02*
X121263881Y-34551961D01*
X121263881Y-34551961D02*
X121216262Y-34456723D01*
X121216262Y-34456723D02*
X121168643Y-34266247D01*
X121168643Y-34266247D02*
X121168643Y-34123390D01*
X121168643Y-34123390D02*
X121216262Y-33932914D01*
X121216262Y-33932914D02*
X121263881Y-33837676D01*
X121263881Y-33837676D02*
X121359119Y-33742438D01*
X121359119Y-33742438D02*
X121501976Y-33694819D01*
X121501976Y-33694819D02*
X121597214Y-33694819D01*
X121597214Y-33694819D02*
X121740071Y-33742438D01*
X121740071Y-33742438D02*
X121787690Y-33790057D01*
X122073405Y-33694819D02*
X122644833Y-33694819D01*
X122359119Y-34694819D02*
X122359119Y-33694819D01*
X122930548Y-33790057D02*
X122978167Y-33742438D01*
X122978167Y-33742438D02*
X123073405Y-33694819D01*
X123073405Y-33694819D02*
X123311500Y-33694819D01*
X123311500Y-33694819D02*
X123406738Y-33742438D01*
X123406738Y-33742438D02*
X123454357Y-33790057D01*
X123454357Y-33790057D02*
X123501976Y-33885295D01*
X123501976Y-33885295D02*
X123501976Y-33980533D01*
X123501976Y-33980533D02*
X123454357Y-34123390D01*
X123454357Y-34123390D02*
X122882929Y-34694819D01*
X122882929Y-34694819D02*
X123501976Y-34694819D01*
X124359119Y-34028152D02*
X124359119Y-34694819D01*
X124121024Y-33647200D02*
X123882929Y-34361485D01*
X123882929Y-34361485D02*
X124501976Y-34361485D01*
X125359119Y-33694819D02*
X124882929Y-33694819D01*
X124882929Y-33694819D02*
X124835310Y-34171009D01*
X124835310Y-34171009D02*
X124882929Y-34123390D01*
X124882929Y-34123390D02*
X124978167Y-34075771D01*
X124978167Y-34075771D02*
X125216262Y-34075771D01*
X125216262Y-34075771D02*
X125311500Y-34123390D01*
X125311500Y-34123390D02*
X125359119Y-34171009D01*
X125359119Y-34171009D02*
X125406738Y-34266247D01*
X125406738Y-34266247D02*
X125406738Y-34504342D01*
X125406738Y-34504342D02*
X125359119Y-34599580D01*
X125359119Y-34599580D02*
X125311500Y-34647200D01*
X125311500Y-34647200D02*
X125216262Y-34694819D01*
X125216262Y-34694819D02*
X124978167Y-34694819D01*
X124978167Y-34694819D02*
X124882929Y-34647200D01*
X124882929Y-34647200D02*
X124835310Y-34599580D01*
D11*
%TO.C,C3*%
X107130000Y-51390000D02*
X107130000Y-51512500D01*
X107130000Y-51390000D02*
X110770000Y-51390000D01*
X107130000Y-53040000D02*
X107130000Y-53225000D01*
X107130000Y-53225000D02*
X110770000Y-53225000D01*
X110770000Y-51390000D02*
X110770000Y-51520000D01*
X110770000Y-53050000D02*
X110770000Y-53222500D01*
%TO.C,C1*%
X135790000Y-43330000D02*
X135920000Y-43330000D01*
X135790000Y-46970000D02*
X135790000Y-43330000D01*
X135790000Y-46970000D02*
X135912500Y-46970000D01*
X137440000Y-46970000D02*
X137625000Y-46970000D01*
X137450000Y-43330000D02*
X137622500Y-43330000D01*
X137625000Y-46970000D02*
X137625000Y-43330000D01*
%TO.C,C2*%
X135790000Y-32430000D02*
X135920000Y-32430000D01*
X135790000Y-36070000D02*
X135790000Y-32430000D01*
X135790000Y-36070000D02*
X135912500Y-36070000D01*
X137440000Y-36070000D02*
X137625000Y-36070000D01*
X137450000Y-32430000D02*
X137622500Y-32430000D01*
X137625000Y-36070000D02*
X137625000Y-32430000D01*
%TO.C,U3*%
X103770000Y-53490000D02*
X103770000Y-71510000D01*
X103770000Y-71510000D02*
X114050000Y-71510000D01*
X106260000Y-53550000D02*
X106260000Y-71450000D01*
X106260000Y-71450000D02*
X111560000Y-71450000D01*
X107910000Y-53550000D02*
X106260000Y-53550000D01*
X111560000Y-53550000D02*
X109910000Y-53550000D01*
X111560000Y-71450000D02*
X111560000Y-53550000D01*
X114050000Y-53490000D02*
X103770000Y-53490000D01*
X114050000Y-71510000D02*
X114050000Y-53490000D01*
X109910000Y-53550000D02*
G75*
G02*
X107910000Y-53550000I-1000000J0D01*
G01*
%TO.C,U2*%
X114670000Y-53492000D02*
X114670000Y-104532000D01*
X114670000Y-104532000D02*
X132570000Y-104532000D01*
X117160000Y-53552000D02*
X117160000Y-104472000D01*
X117160000Y-104472000D02*
X130080000Y-104472000D01*
X122620000Y-53552000D02*
X117160000Y-53552000D01*
X130080000Y-53552000D02*
X124620000Y-53552000D01*
X130080000Y-104472000D02*
X130080000Y-53552000D01*
X132570000Y-53492000D02*
X114670000Y-53492000D01*
X132570000Y-104532000D02*
X132570000Y-53492000D01*
X124620000Y-53552000D02*
G75*
G02*
X122620000Y-53552000I-1000000J0D01*
G01*
%TO.C,U6*%
X109761500Y-39950000D02*
X109761500Y-50230000D01*
X109761500Y-50230000D02*
X135401500Y-50230000D01*
X109821500Y-42440000D02*
X109821500Y-47740000D01*
X109821500Y-47740000D02*
X135341500Y-47740000D01*
X135341500Y-42440000D02*
X109821500Y-42440000D01*
X135341500Y-44090000D02*
X135341500Y-42440000D01*
X135341500Y-47740000D02*
X135341500Y-46090000D01*
X135401500Y-39950000D02*
X109761500Y-39950000D01*
X135401500Y-50230000D02*
X135401500Y-39950000D01*
X135341500Y-46090000D02*
G75*
G02*
X135341500Y-44090000I0J1000000D01*
G01*
%TO.C,U5*%
X103754000Y-73860000D02*
X103754000Y-99500000D01*
X103754000Y-99500000D02*
X114034000Y-99500000D01*
X106244000Y-73920000D02*
X106244000Y-99440000D01*
X106244000Y-99440000D02*
X111544000Y-99440000D01*
X107894000Y-73920000D02*
X106244000Y-73920000D01*
X111544000Y-73920000D02*
X109894000Y-73920000D01*
X111544000Y-99440000D02*
X111544000Y-73920000D01*
X114034000Y-73860000D02*
X103754000Y-73860000D01*
X114034000Y-99500000D02*
X114034000Y-73860000D01*
X109894000Y-73920000D02*
G75*
G02*
X107894000Y-73920000I-1000000J0D01*
G01*
%TO.C,U1*%
X117330000Y-53492000D02*
X117330000Y-104532000D01*
X117330000Y-104532000D02*
X135230000Y-104532000D01*
X119820000Y-53552000D02*
X119820000Y-104472000D01*
X119820000Y-104472000D02*
X132740000Y-104472000D01*
X125280000Y-53552000D02*
X119820000Y-53552000D01*
X132740000Y-53552000D02*
X127280000Y-53552000D01*
X132740000Y-104472000D02*
X132740000Y-53552000D01*
X135230000Y-53492000D02*
X117330000Y-53492000D01*
X135230000Y-104532000D02*
X135230000Y-53492000D01*
X127280000Y-53552000D02*
G75*
G02*
X125280000Y-53552000I-1000000J0D01*
G01*
%TO.C,C4*%
X107030000Y-71790000D02*
X107030000Y-71912500D01*
X107030000Y-71790000D02*
X110670000Y-71790000D01*
X107030000Y-73440000D02*
X107030000Y-73625000D01*
X107030000Y-73625000D02*
X110670000Y-73625000D01*
X110670000Y-71790000D02*
X110670000Y-71920000D01*
X110670000Y-73450000D02*
X110670000Y-73622500D01*
%TO.C,U4*%
X109757500Y-29100000D02*
X109757500Y-39380000D01*
X109757500Y-39380000D02*
X135397500Y-39380000D01*
X109817500Y-31590000D02*
X109817500Y-36890000D01*
X109817500Y-36890000D02*
X135337500Y-36890000D01*
X135337500Y-31590000D02*
X109817500Y-31590000D01*
X135337500Y-33240000D02*
X135337500Y-31590000D01*
X135337500Y-36890000D02*
X135337500Y-35240000D01*
X135397500Y-29100000D02*
X109757500Y-29100000D01*
X135397500Y-39380000D02*
X135397500Y-29100000D01*
X135337500Y-35240000D02*
G75*
G02*
X135337500Y-33240000I0J1000000D01*
G01*
%TD*%
M02*
