M48
; DRILL file {KiCad 8.0.2} date 2024-06-14T23:34:26+0200
; FORMAT={-:-/ absolute / inch / decimal}
; #@! TF.CreationDate,2024-06-14T23:34:26+02:00
; #@! TF.GenerationSoftware,Kicad,Pcbnew,8.0.2
; #@! TF.FileFunction,Plated,1,2,PTH
FMAT,2
INCH
; #@! TA.AperFunction,Plated,PTH,ViaDrill
T1C0.0118
; #@! TA.AperFunction,Plated,PTH,ViaDrill
T2C0.0157
; #@! TA.AperFunction,Plated,PTH,ComponentDrill
T3C0.0315
%
G90
G05
T1
X4.2165Y-3.4843
X4.4899Y-2.1822
X4.6181Y-3.2953
X4.698Y-1.9815
X4.7574Y-3.6142
X4.7638Y-3.5551
X4.7992Y-2.0591
X4.8307Y-2.0984
X5.126Y-1.878
X5.2048Y-3.6008
T2
X4.9016Y-2.2165
X4.9016Y-3.2283
T3
X4.1372Y-2.9626
X4.1372Y-3.0626
X4.1372Y-3.1626
X4.1372Y-3.2626
X4.1372Y-3.3626
X4.1372Y-3.4626
X4.1372Y-3.5626
X4.1372Y-3.6626
X4.1372Y-3.7626
X4.1372Y-3.8626
X4.1378Y-2.1606
X4.1378Y-2.2606
X4.1378Y-2.3606
X4.1378Y-2.4606
X4.1378Y-2.5606
X4.1378Y-2.6606
X4.1378Y-2.7606
X4.2362Y-2.8622
X4.2402Y-2.0591
X4.3346Y-2.8622
X4.3386Y-2.0591
X4.3759Y-1.198
X4.3759Y-1.498
X4.376Y-1.6252
X4.376Y-1.9252
X4.4372Y-2.9626
X4.4372Y-3.0626
X4.4372Y-3.1626
X4.4372Y-3.2626
X4.4372Y-3.3626
X4.4372Y-3.4626
X4.4372Y-3.5626
X4.4372Y-3.6626
X4.4372Y-3.7626
X4.4372Y-3.8626
X4.4378Y-2.1606
X4.4378Y-2.2606
X4.4378Y-2.3606
X4.4378Y-2.4606
X4.4378Y-2.5606
X4.4378Y-2.6606
X4.4378Y-2.7606
X4.4759Y-1.198
X4.4759Y-1.498
X4.476Y-1.6252
X4.476Y-1.9252
X4.5669Y-2.1607
X4.5669Y-2.2607
X4.5669Y-2.3607
X4.5669Y-2.4607
X4.5669Y-2.5607
X4.5669Y-2.6607
X4.5669Y-2.7607
X4.5669Y-2.8607
X4.5669Y-2.9607
X4.5669Y-3.0607
X4.5669Y-3.1607
X4.5669Y-3.2607
X4.5669Y-3.3607
X4.5669Y-3.4607
X4.5669Y-3.5607
X4.5669Y-3.6607
X4.5669Y-3.7607
X4.5669Y-3.8607
X4.5669Y-3.9607
X4.5669Y-4.0607
X4.5759Y-1.198
X4.5759Y-1.498
X4.576Y-1.6252
X4.576Y-1.9252
X4.6717Y-2.1607
X4.6717Y-2.2607
X4.6717Y-2.3607
X4.6717Y-2.4607
X4.6717Y-2.5607
X4.6717Y-2.6607
X4.6717Y-2.7607
X4.6717Y-2.8607
X4.6717Y-2.9607
X4.6717Y-3.0607
X4.6717Y-3.1607
X4.6717Y-3.2607
X4.6717Y-3.3607
X4.6717Y-3.4607
X4.6717Y-3.5607
X4.6717Y-3.6607
X4.6717Y-3.7607
X4.6717Y-3.8607
X4.6717Y-3.9607
X4.6717Y-4.0607
X4.6759Y-1.198
X4.6759Y-1.498
X4.676Y-1.6252
X4.676Y-1.9252
X4.7759Y-1.198
X4.7759Y-1.498
X4.776Y-1.6252
X4.776Y-1.9252
X4.8759Y-1.198
X4.8759Y-1.498
X4.876Y-1.6252
X4.876Y-1.9252
X4.9252Y-2.0591
X4.9759Y-1.198
X4.9759Y-1.498
X4.976Y-1.6252
X4.976Y-1.9252
X5.0236Y-2.0591
X5.0759Y-1.198
X5.0759Y-1.498
X5.076Y-1.6252
X5.076Y-1.9252
X5.1669Y-2.1607
X5.1669Y-2.2607
X5.1669Y-2.3607
X5.1669Y-2.4607
X5.1669Y-2.5607
X5.1669Y-2.6607
X5.1669Y-2.7607
X5.1669Y-2.8607
X5.1669Y-2.9607
X5.1669Y-3.0607
X5.1669Y-3.1607
X5.1669Y-3.2607
X5.1669Y-3.3607
X5.1669Y-3.4607
X5.1669Y-3.5607
X5.1669Y-3.6607
X5.1669Y-3.7607
X5.1669Y-3.8607
X5.1669Y-3.9607
X5.1669Y-4.0607
X5.1759Y-1.198
X5.1759Y-1.498
X5.176Y-1.6252
X5.176Y-1.9252
X5.2717Y-2.1607
X5.2717Y-2.2607
X5.2717Y-2.3607
X5.2717Y-2.4607
X5.2717Y-2.5607
X5.2717Y-2.6607
X5.2717Y-2.7607
X5.2717Y-2.8607
X5.2717Y-2.9607
X5.2717Y-3.0607
X5.2717Y-3.1607
X5.2717Y-3.2607
X5.2717Y-3.3607
X5.2717Y-3.4607
X5.2717Y-3.5607
X5.2717Y-3.6607
X5.2717Y-3.7607
X5.2717Y-3.8607
X5.2717Y-3.9607
X5.2717Y-4.0607
X5.2759Y-1.198
X5.2759Y-1.498
X5.276Y-1.6252
X5.276Y-1.9252
X5.3819Y-1.2992
X5.3819Y-1.3976
X5.3819Y-1.7283
X5.3819Y-1.8268
M30
