%TF.GenerationSoftware,KiCad,Pcbnew,8.0.2*%
%TF.CreationDate,2024-06-14T23:34:29+02:00*%
%TF.ProjectId,MOS6566_Adapter,4d4f5336-3536-4365-9f41-646170746572,rev?*%
%TF.SameCoordinates,Original*%
%TF.FileFunction,Copper,L2,Bot*%
%TF.FilePolarity,Positive*%
%FSLAX46Y46*%
G04 Gerber Fmt 4.6, Leading zero omitted, Abs format (unit mm)*
G04 Created by KiCad (PCBNEW 8.0.2) date 2024-06-14 23:34:29*
%MOMM*%
%LPD*%
G01*
G04 APERTURE LIST*
G04 Aperture macros list*
%AMFreePoly0*
4,1,19,0.500000,-0.750000,0.000000,-0.750000,0.000000,-0.744911,-0.071157,-0.744911,-0.207708,-0.704816,-0.327430,-0.627875,-0.420627,-0.520320,-0.479746,-0.390866,-0.500000,-0.250000,-0.500000,0.250000,-0.479746,0.390866,-0.420627,0.520320,-0.327430,0.627875,-0.207708,0.704816,-0.071157,0.744911,0.000000,0.744911,0.000000,0.750000,0.500000,0.750000,0.500000,-0.750000,0.500000,-0.750000,
$1*%
%AMFreePoly1*
4,1,19,0.000000,0.744911,0.071157,0.744911,0.207708,0.704816,0.327430,0.627875,0.420627,0.520320,0.479746,0.390866,0.500000,0.250000,0.500000,-0.250000,0.479746,-0.390866,0.420627,-0.520320,0.327430,-0.627875,0.207708,-0.704816,0.071157,-0.744911,0.000000,-0.744911,0.000000,-0.750000,-0.500000,-0.750000,-0.500000,0.750000,0.000000,0.750000,0.000000,0.744911,0.000000,0.744911,
$1*%
G04 Aperture macros list end*
%TA.AperFunction,EtchedComponent*%
%ADD10C,0.000000*%
%TD*%
%TA.AperFunction,ComponentPad*%
%ADD11C,1.600000*%
%TD*%
%TA.AperFunction,ComponentPad*%
%ADD12R,1.600000X1.600000*%
%TD*%
%TA.AperFunction,ComponentPad*%
%ADD13O,1.600000X1.600000*%
%TD*%
%TA.AperFunction,SMDPad,CuDef*%
%ADD14FreePoly0,0.000000*%
%TD*%
%TA.AperFunction,SMDPad,CuDef*%
%ADD15FreePoly1,0.000000*%
%TD*%
%TA.AperFunction,ViaPad*%
%ADD16C,0.600000*%
%TD*%
%TA.AperFunction,ViaPad*%
%ADD17C,0.700000*%
%TD*%
%TA.AperFunction,Conductor*%
%ADD18C,0.400000*%
%TD*%
%TA.AperFunction,Conductor*%
%ADD19C,0.200000*%
%TD*%
%TA.AperFunction,Conductor*%
%ADD20C,0.500000*%
%TD*%
G04 APERTURE END LIST*
D10*
%TA.AperFunction,EtchedComponent*%
%TO.C,JP1*%
G36*
X125400000Y-82300000D02*
G01*
X124900000Y-82300000D01*
X124900000Y-81700000D01*
X125400000Y-81700000D01*
X125400000Y-82300000D01*
G37*
%TD.AperFunction*%
%TD*%
D11*
%TO.P,C5,2*%
%TO.N,/GND*%
X125100000Y-52300000D03*
%TO.P,C5,1*%
%TO.N,/PwR5V*%
X127600000Y-52300000D03*
%TD*%
%TO.P,C3,1*%
%TO.N,/PwR5V*%
X107700000Y-52300000D03*
%TO.P,C3,2*%
%TO.N,/GND*%
X110200000Y-52300000D03*
%TD*%
%TO.P,C1,1*%
%TO.N,/PwR5V*%
X136700000Y-46400000D03*
%TO.P,C1,2*%
%TO.N,/GND*%
X136700000Y-43900000D03*
%TD*%
%TO.P,C2,1*%
%TO.N,/PwR5V*%
X136700000Y-35500000D03*
%TO.P,C2,2*%
%TO.N,/GND*%
X136700000Y-33000000D03*
%TD*%
D12*
%TO.P,U3,1*%
%TO.N,Net-(U1-AEC)*%
X105100000Y-54880000D03*
D13*
%TO.P,U3,2*%
%TO.N,Net-(U4-CE)*%
X105100000Y-57420000D03*
%TO.P,U3,3*%
%TO.N,N/C*%
X105100000Y-59960000D03*
%TO.P,U3,4*%
X105100000Y-62500000D03*
%TO.P,U3,5*%
X105100000Y-65040000D03*
%TO.P,U3,6*%
X105100000Y-67580000D03*
%TO.P,U3,7,GND*%
%TO.N,/GND*%
X105100000Y-70120000D03*
%TO.P,U3,8*%
%TO.N,N/C*%
X112720000Y-70120000D03*
%TO.P,U3,9*%
X112720000Y-67580000D03*
%TO.P,U3,10*%
X112720000Y-65040000D03*
%TO.P,U3,11*%
X112720000Y-62500000D03*
%TO.P,U3,12*%
X112720000Y-59960000D03*
%TO.P,U3,13*%
X112720000Y-57420000D03*
%TO.P,U3,14,VCC*%
%TO.N,/PwR5V*%
X112720000Y-54880000D03*
%TD*%
D12*
%TO.P,U2,1,D6*%
%TO.N,/D6*%
X116000000Y-54882000D03*
D13*
%TO.P,U2,2,D5*%
%TO.N,/D5*%
X116000000Y-57422000D03*
%TO.P,U2,3,D4*%
%TO.N,/D4*%
X116000000Y-59962000D03*
%TO.P,U2,4,D3*%
%TO.N,/D3*%
X116000000Y-62502000D03*
%TO.P,U2,5,D2*%
%TO.N,/D2*%
X116000000Y-65042000D03*
%TO.P,U2,6,D1*%
%TO.N,/D1*%
X116000000Y-67582000D03*
%TO.P,U2,7,D0*%
%TO.N,/D0*%
X116000000Y-70122000D03*
%TO.P,U2,8,IRQ*%
%TO.N,Net-(U1-IRQ)*%
X116000000Y-72662000D03*
%TO.P,U2,9,LP*%
%TO.N,Net-(U1-LP)*%
X116000000Y-75202000D03*
%TO.P,U2,10,~{CS}*%
%TO.N,Net-(U1-~{CS})*%
X116000000Y-77742000D03*
%TO.P,U2,11,R/~{W}*%
%TO.N,Net-(U1-R{slash}~{W})*%
X116000000Y-80282000D03*
%TO.P,U2,12,BA*%
%TO.N,Net-(U1-BA)*%
X116000000Y-82822000D03*
%TO.P,U2,13,VDD*%
%TO.N,Net-(JP1-B)*%
X116000000Y-85362000D03*
%TO.P,U2,14,Color*%
%TO.N,Net-(U1-Color)*%
X116000000Y-87902000D03*
%TO.P,U2,15,Sync*%
%TO.N,Net-(U1-Sync)*%
X116000000Y-90442000D03*
%TO.P,U2,16,AEC*%
%TO.N,Net-(U1-AEC)*%
X116000000Y-92982000D03*
%TO.P,U2,17,PHI0*%
%TO.N,Net-(U1-PHI0)*%
X116000000Y-95522000D03*
%TO.P,U2,18,RAS*%
%TO.N,Net-(U2-RAS)*%
X116000000Y-98062000D03*
%TO.P,U2,19,CAS*%
%TO.N,Net-(U2-CAS)*%
X116000000Y-100602000D03*
%TO.P,U2,20,VSS*%
%TO.N,/GND*%
X116000000Y-103142000D03*
%TO.P,U2,21,COLCLK*%
%TO.N,Net-(U1-COLCLK)*%
X131240000Y-103142000D03*
%TO.P,U2,22,DOTCLK*%
%TO.N,Net-(U1-DOTCLK)*%
X131240000Y-100602000D03*
%TO.P,U2,23,A11*%
%TO.N,/A11*%
X131240000Y-98062000D03*
%TO.P,U2,24,A0/A8*%
%TO.N,Net-(U2-A0{slash}A8)*%
X131240000Y-95522000D03*
%TO.P,U2,25,A1/A9*%
%TO.N,Net-(U2-A1{slash}A9)*%
X131240000Y-92982000D03*
%TO.P,U2,26,A2/A10*%
%TO.N,Net-(U2-A2{slash}A10)*%
X131240000Y-90442000D03*
%TO.P,U2,27,A3/A11*%
%TO.N,Net-(U2-A3{slash}A11)*%
X131240000Y-87902000D03*
%TO.P,U2,28,A4/A12*%
%TO.N,Net-(U2-A4{slash}A12)*%
X131240000Y-85362000D03*
%TO.P,U2,29,A5/A13*%
%TO.N,Net-(U2-A5{slash}A13)*%
X131240000Y-82822000D03*
%TO.P,U2,30,A6*%
%TO.N,Net-(U2-A6)*%
X131240000Y-80282000D03*
%TO.P,U2,31,A7*%
%TO.N,/A7*%
X131240000Y-77742000D03*
%TO.P,U2,32,A8*%
%TO.N,/A8*%
X131240000Y-75202000D03*
%TO.P,U2,33,A9*%
%TO.N,/A9*%
X131240000Y-72662000D03*
%TO.P,U2,34,A10*%
%TO.N,/A10*%
X131240000Y-70122000D03*
%TO.P,U2,35,D11*%
%TO.N,/D11*%
X131240000Y-67582000D03*
%TO.P,U2,36,D10*%
%TO.N,/D10*%
X131240000Y-65042000D03*
%TO.P,U2,37,D9*%
%TO.N,/D9*%
X131240000Y-62502000D03*
%TO.P,U2,38,D8*%
%TO.N,/D8*%
X131240000Y-59962000D03*
%TO.P,U2,39,D7*%
%TO.N,/D7*%
X131240000Y-57422000D03*
%TO.P,U2,40,VCC*%
%TO.N,/PwR5V*%
X131240000Y-54882000D03*
%TD*%
D12*
%TO.P,U6,1,OE*%
%TO.N,Net-(U1-AEC)*%
X134011500Y-41280000D03*
D13*
%TO.P,U6,2,D0*%
%TO.N,Net-(U2-A5{slash}A13)*%
X131471500Y-41280000D03*
%TO.P,U6,3,D1*%
%TO.N,Net-(U2-A4{slash}A12)*%
X128931500Y-41280000D03*
%TO.P,U6,4,D2*%
%TO.N,/PwR5V*%
X126391500Y-41280000D03*
%TO.P,U6,5,D3*%
X123851500Y-41280000D03*
%TO.P,U6,6,D4*%
X121311500Y-41280000D03*
%TO.P,U6,7,D5*%
X118771500Y-41280000D03*
%TO.P,U6,8,D6*%
X116231500Y-41280000D03*
%TO.P,U6,9,D7*%
X113691500Y-41280000D03*
%TO.P,U6,10,GND*%
%TO.N,/GND*%
X111151500Y-41280000D03*
%TO.P,U6,11,C*%
%TO.N,Net-(U2-CAS)*%
X111151500Y-48900000D03*
%TO.P,U6,12,Q7*%
%TO.N,unconnected-(U6-Q7-Pad12)*%
X113691500Y-48900000D03*
%TO.P,U6,13,Q6*%
%TO.N,unconnected-(U6-Q6-Pad13)*%
X116231500Y-48900000D03*
%TO.P,U6,14,Q5*%
%TO.N,unconnected-(U6-Q5-Pad14)*%
X118771500Y-48900000D03*
%TO.P,U6,15,Q4*%
%TO.N,unconnected-(U6-Q4-Pad15)*%
X121311500Y-48900000D03*
%TO.P,U6,16,Q3*%
%TO.N,unconnected-(U6-Q3-Pad16)*%
X123851500Y-48900000D03*
%TO.P,U6,17,Q2*%
%TO.N,unconnected-(U6-Q2-Pad17)*%
X126391500Y-48900000D03*
%TO.P,U6,18,Q1*%
%TO.N,Net-(U1-A12)*%
X128931500Y-48900000D03*
%TO.P,U6,19,Q0*%
%TO.N,Net-(U1-A13)*%
X131471500Y-48900000D03*
%TO.P,U6,20,VCC*%
%TO.N,/PwR5V*%
X134011500Y-48900000D03*
%TD*%
D12*
%TO.P,U5,1,OE*%
%TO.N,Net-(U1-AEC)*%
X105084000Y-75250000D03*
D13*
%TO.P,U5,2,D0*%
%TO.N,Net-(U2-A6)*%
X105084000Y-77790000D03*
%TO.P,U5,3,D1*%
%TO.N,Net-(U2-A5{slash}A13)*%
X105084000Y-80330000D03*
%TO.P,U5,4,D2*%
%TO.N,Net-(U2-A4{slash}A12)*%
X105084000Y-82870000D03*
%TO.P,U5,5,D3*%
%TO.N,Net-(U2-A3{slash}A11)*%
X105084000Y-85410000D03*
%TO.P,U5,6,D4*%
%TO.N,Net-(U2-A2{slash}A10)*%
X105084000Y-87950000D03*
%TO.P,U5,7,D5*%
%TO.N,Net-(U2-A1{slash}A9)*%
X105084000Y-90490000D03*
%TO.P,U5,8,D6*%
%TO.N,Net-(U2-A0{slash}A8)*%
X105084000Y-93030000D03*
%TO.P,U5,9,D7*%
%TO.N,/PwR5V*%
X105084000Y-95570000D03*
%TO.P,U5,10,GND*%
%TO.N,/GND*%
X105084000Y-98110000D03*
%TO.P,U5,11,C*%
%TO.N,Net-(U2-RAS)*%
X112704000Y-98110000D03*
%TO.P,U5,12,Q7*%
%TO.N,unconnected-(U5-Q7-Pad12)*%
X112704000Y-95570000D03*
%TO.P,U5,13,Q6*%
%TO.N,Net-(U1-A0)*%
X112704000Y-93030000D03*
%TO.P,U5,14,Q5*%
%TO.N,Net-(U1-A1)*%
X112704000Y-90490000D03*
%TO.P,U5,15,Q4*%
%TO.N,Net-(U1-A2)*%
X112704000Y-87950000D03*
%TO.P,U5,16,Q3*%
%TO.N,Net-(U1-A3)*%
X112704000Y-85410000D03*
%TO.P,U5,17,Q2*%
%TO.N,Net-(U1-A4)*%
X112704000Y-82870000D03*
%TO.P,U5,18,Q1*%
%TO.N,Net-(U1-A5)*%
X112704000Y-80330000D03*
%TO.P,U5,19,Q0*%
%TO.N,Net-(U1-A6)*%
X112704000Y-77790000D03*
%TO.P,U5,20,VCC*%
%TO.N,/PwR5V*%
X112704000Y-75250000D03*
%TD*%
D12*
%TO.P,U1,1,D6*%
%TO.N,/D6*%
X118660000Y-54882000D03*
D13*
%TO.P,U1,2,D5*%
%TO.N,/D5*%
X118660000Y-57422000D03*
%TO.P,U1,3,D4*%
%TO.N,/D4*%
X118660000Y-59962000D03*
%TO.P,U1,4,D3*%
%TO.N,/D3*%
X118660000Y-62502000D03*
%TO.P,U1,5,D2*%
%TO.N,/D2*%
X118660000Y-65042000D03*
%TO.P,U1,6,D1*%
%TO.N,/D1*%
X118660000Y-67582000D03*
%TO.P,U1,7,D0*%
%TO.N,/D0*%
X118660000Y-70122000D03*
%TO.P,U1,8,IRQ*%
%TO.N,Net-(U1-IRQ)*%
X118660000Y-72662000D03*
%TO.P,U1,9,LP*%
%TO.N,Net-(U1-LP)*%
X118660000Y-75202000D03*
%TO.P,U1,10,~{CS}*%
%TO.N,Net-(U1-~{CS})*%
X118660000Y-77742000D03*
%TO.P,U1,11,R/~{W}*%
%TO.N,Net-(U1-R{slash}~{W})*%
X118660000Y-80282000D03*
%TO.P,U1,12,BA*%
%TO.N,Net-(U1-BA)*%
X118660000Y-82822000D03*
%TO.P,U1,13,VDD*%
%TO.N,/Power12V*%
X118660000Y-85362000D03*
%TO.P,U1,14,Color*%
%TO.N,Net-(U1-Color)*%
X118660000Y-87902000D03*
%TO.P,U1,15,Sync*%
%TO.N,Net-(U1-Sync)*%
X118660000Y-90442000D03*
%TO.P,U1,16,AEC*%
%TO.N,Net-(U1-AEC)*%
X118660000Y-92982000D03*
%TO.P,U1,17,PHI0*%
%TO.N,Net-(U1-PHI0)*%
X118660000Y-95522000D03*
%TO.P,U1,18,DOTCLK*%
%TO.N,Net-(U1-DOTCLK)*%
X118660000Y-98062000D03*
%TO.P,U1,19,COLCLK*%
%TO.N,Net-(U1-COLCLK)*%
X118660000Y-100602000D03*
%TO.P,U1,20,VSS*%
%TO.N,/GND*%
X118660000Y-103142000D03*
%TO.P,U1,21,A0*%
%TO.N,Net-(U1-A0)*%
X133900000Y-103142000D03*
%TO.P,U1,22,A1*%
%TO.N,Net-(U1-A1)*%
X133900000Y-100602000D03*
%TO.P,U1,23,A2*%
%TO.N,Net-(U1-A2)*%
X133900000Y-98062000D03*
%TO.P,U1,24,A3*%
%TO.N,Net-(U1-A3)*%
X133900000Y-95522000D03*
%TO.P,U1,25,A4*%
%TO.N,Net-(U1-A4)*%
X133900000Y-92982000D03*
%TO.P,U1,26,A5*%
%TO.N,Net-(U1-A5)*%
X133900000Y-90442000D03*
%TO.P,U1,27,A6*%
%TO.N,Net-(U1-A6)*%
X133900000Y-87902000D03*
%TO.P,U1,28,A7*%
%TO.N,/A7*%
X133900000Y-85362000D03*
%TO.P,U1,29,A8*%
%TO.N,/A8*%
X133900000Y-82822000D03*
%TO.P,U1,30,A9*%
%TO.N,/A9*%
X133900000Y-80282000D03*
%TO.P,U1,31,A10*%
%TO.N,/A10*%
X133900000Y-77742000D03*
%TO.P,U1,32,A11*%
%TO.N,/A11*%
X133900000Y-75202000D03*
%TO.P,U1,33,A12*%
%TO.N,Net-(U1-A12)*%
X133900000Y-72662000D03*
%TO.P,U1,34,A13*%
%TO.N,Net-(U1-A13)*%
X133900000Y-70122000D03*
%TO.P,U1,35,D11*%
%TO.N,/D11*%
X133900000Y-67582000D03*
%TO.P,U1,36,D10*%
%TO.N,/D10*%
X133900000Y-65042000D03*
%TO.P,U1,37,D9*%
%TO.N,/D9*%
X133900000Y-62502000D03*
%TO.P,U1,38,D8*%
%TO.N,/D8*%
X133900000Y-59962000D03*
%TO.P,U1,39,D7*%
%TO.N,/D7*%
X133900000Y-57422000D03*
%TO.P,U1,40,VCC*%
%TO.N,/PwR5V*%
X133900000Y-54882000D03*
%TD*%
D11*
%TO.P,C4,1*%
%TO.N,/PwR5V*%
X107600000Y-72700000D03*
%TO.P,C4,2*%
%TO.N,/GND*%
X110100000Y-72700000D03*
%TD*%
D12*
%TO.P,U4,1,A->B*%
%TO.N,/GND*%
X134007500Y-30430000D03*
D13*
%TO.P,U4,2,A0*%
%TO.N,Net-(U2-A5{slash}A13)*%
X131467500Y-30430000D03*
%TO.P,U4,3,A1*%
%TO.N,Net-(U2-A4{slash}A12)*%
X128927500Y-30430000D03*
%TO.P,U4,4,A2*%
%TO.N,Net-(U2-A3{slash}A11)*%
X126387500Y-30430000D03*
%TO.P,U4,5,A3*%
%TO.N,Net-(U2-A2{slash}A10)*%
X123847500Y-30430000D03*
%TO.P,U4,6,A4*%
%TO.N,Net-(U2-A1{slash}A9)*%
X121307500Y-30430000D03*
%TO.P,U4,7,A5*%
%TO.N,Net-(U2-A0{slash}A8)*%
X118767500Y-30430000D03*
%TO.P,U4,8,A6*%
%TO.N,unconnected-(U4-A6-Pad8)*%
X116227500Y-30430000D03*
%TO.P,U4,9,A7*%
%TO.N,unconnected-(U4-A7-Pad9)*%
X113687500Y-30430000D03*
%TO.P,U4,10,GND*%
%TO.N,/GND*%
X111147500Y-30430000D03*
%TO.P,U4,11,B7*%
%TO.N,/PwR5V*%
X111147500Y-38050000D03*
%TO.P,U4,12,B6*%
X113687500Y-38050000D03*
%TO.P,U4,13,B5*%
%TO.N,Net-(U1-A0)*%
X116227500Y-38050000D03*
%TO.P,U4,14,B4*%
%TO.N,Net-(U1-A1)*%
X118767500Y-38050000D03*
%TO.P,U4,15,B3*%
%TO.N,Net-(U1-A2)*%
X121307500Y-38050000D03*
%TO.P,U4,16,B2*%
%TO.N,Net-(U1-A3)*%
X123847500Y-38050000D03*
%TO.P,U4,17,B1*%
%TO.N,Net-(U1-A4)*%
X126387500Y-38050000D03*
%TO.P,U4,18,B0*%
%TO.N,Net-(U1-A5)*%
X128927500Y-38050000D03*
%TO.P,U4,19,CE*%
%TO.N,Net-(U4-CE)*%
X131467500Y-38050000D03*
%TO.P,U4,20,VCC*%
%TO.N,/PwR5V*%
X134007500Y-38050000D03*
%TD*%
D14*
%TO.P,JP2,1,A*%
%TO.N,/Power12V*%
X124500000Y-85400000D03*
D15*
%TO.P,JP2,2,B*%
%TO.N,Net-(JP1-B)*%
X125800000Y-85400000D03*
%TD*%
D14*
%TO.P,JP1,1,A*%
%TO.N,/PwR5V*%
X124500000Y-82000000D03*
D15*
%TO.P,JP1,2,B*%
%TO.N,Net-(JP1-B)*%
X125800000Y-82000000D03*
%TD*%
D16*
%TO.N,/GND*%
X121900000Y-52300000D03*
D17*
%TO.N,/PwR5V*%
X124500000Y-56300000D03*
X124500000Y-82000000D03*
D16*
%TO.N,Net-(U1-A2)*%
X120838500Y-91800000D03*
%TO.N,Net-(U1-AEC)*%
X107100000Y-88500000D03*
%TO.N,Net-(U1-A5)*%
X132203000Y-91461300D03*
X114043400Y-55427300D03*
X122700000Y-53300000D03*
%TO.N,Net-(U1-A4)*%
X117300000Y-83700000D03*
X121000000Y-90300000D03*
X119330350Y-50330350D03*
%TO.N,Net-(U4-CE)*%
X130200000Y-47700000D03*
%TD*%
D18*
%TO.N,Net-(JP1-B)*%
X118090925Y-84100000D02*
X116828925Y-85362000D01*
X116828925Y-85362000D02*
X116000000Y-85362000D01*
X123300000Y-83700000D02*
X122900000Y-84100000D01*
X122900000Y-84100000D02*
X118090925Y-84100000D01*
X125800000Y-83700000D02*
X123300000Y-83700000D01*
%TO.N,/Power12V*%
X124462000Y-85362000D02*
X124500000Y-85400000D01*
X118660000Y-85362000D02*
X124462000Y-85362000D01*
%TO.N,/PwR5V*%
X125100000Y-40031500D02*
X123851500Y-41280000D01*
X134007500Y-37407500D02*
X133300000Y-36700000D01*
X134007500Y-38050000D02*
X134007500Y-37407500D01*
X133300000Y-36700000D02*
X125800000Y-36700000D01*
X125800000Y-36700000D02*
X125100000Y-37400000D01*
X125100000Y-37400000D02*
X125100000Y-40031500D01*
X123851500Y-41280000D02*
X126391500Y-41280000D01*
D19*
%TO.N,Net-(U1-A4)*%
X126900000Y-42700000D02*
X127700000Y-41900000D01*
X124200000Y-42700000D02*
X126900000Y-42700000D01*
X120041500Y-46858500D02*
X124200000Y-42700000D01*
X127700000Y-39362500D02*
X126387500Y-38050000D01*
X120041500Y-49619200D02*
X120041500Y-46858500D01*
X119330350Y-50330350D02*
X120041500Y-49619200D01*
X127700000Y-41900000D02*
X127700000Y-39362500D01*
%TO.N,Net-(U1-A5)*%
X130200000Y-39322500D02*
X128927500Y-38050000D01*
X130200000Y-42500000D02*
X130200000Y-39322500D01*
X129780800Y-42919200D02*
X130200000Y-42500000D01*
X127419200Y-42919200D02*
X129780800Y-42919200D01*
X122600000Y-47738400D02*
X127419200Y-42919200D01*
%TO.N,/PwR5V*%
X126391500Y-40773600D02*
X126391500Y-41280000D01*
X134007500Y-38050000D02*
X134509000Y-38050000D01*
%TO.N,Net-(U4-CE)*%
X130200000Y-49187135D02*
X130200000Y-47700000D01*
X128587135Y-50800000D02*
X130200000Y-49187135D01*
X127200000Y-50800000D02*
X128587135Y-50800000D01*
X126300000Y-51700000D02*
X127200000Y-50800000D01*
X126300000Y-53260750D02*
X126300000Y-51700000D01*
X121028750Y-58532000D02*
X126300000Y-53260750D01*
X107313700Y-58532000D02*
X121028750Y-58532000D01*
X106201700Y-57420000D02*
X107313700Y-58532000D01*
X105100000Y-57420000D02*
X106201700Y-57420000D01*
D20*
%TO.N,/PwR5V*%
X130800000Y-52300000D02*
X127600000Y-52300000D01*
X131240000Y-52740000D02*
X130800000Y-52300000D01*
X131240000Y-54882000D02*
X131240000Y-52740000D01*
D19*
%TO.N,Net-(U1-A5)*%
X122700000Y-53300000D02*
X115542800Y-53300000D01*
X115542800Y-53300000D02*
X114043400Y-54799400D01*
X114043400Y-54799400D02*
X114043400Y-55427300D01*
X122600000Y-53200000D02*
X122600000Y-47738400D01*
X122700000Y-53300000D02*
X122600000Y-53200000D01*
%TO.N,Net-(U1-AEC)*%
X106420000Y-56200000D02*
X105100000Y-54880000D01*
X123400000Y-53800000D02*
X121000000Y-56200000D01*
X126900000Y-50400000D02*
X124800000Y-50400000D01*
X127661500Y-49638500D02*
X126900000Y-50400000D01*
X127661500Y-48594000D02*
X127661500Y-49638500D01*
X134011500Y-42244000D02*
X127661500Y-48594000D01*
X123400000Y-51800000D02*
X123400000Y-53800000D01*
X121000000Y-56200000D02*
X106420000Y-56200000D01*
X134011500Y-41280000D02*
X134011500Y-42244000D01*
X124800000Y-50400000D02*
X123400000Y-51800000D01*
D20*
%TO.N,/GND*%
X121900000Y-52300000D02*
X110200000Y-52300000D01*
D18*
%TO.N,/PwR5V*%
X136557500Y-35500000D02*
X134007500Y-38050000D01*
X136700000Y-35500000D02*
X136557500Y-35500000D01*
X135300100Y-45000200D02*
X135300100Y-42499900D01*
X135300100Y-42499900D02*
X136700000Y-41100000D01*
X135300200Y-45000200D02*
X135300100Y-45000200D01*
X136700000Y-46400000D02*
X135300200Y-45000200D01*
X136700000Y-41100000D02*
X136700000Y-35500000D01*
D19*
%TO.N,/GND*%
X132100000Y-29300000D02*
X133000000Y-30200000D01*
D20*
X112142000Y-103142000D02*
X116000000Y-103142000D01*
D19*
X133777500Y-30200000D02*
X134007500Y-30430000D01*
D20*
X105084000Y-98110000D02*
X107110000Y-98110000D01*
X107110000Y-98110000D02*
X112142000Y-103142000D01*
D19*
X113241500Y-29300000D02*
X132100000Y-29300000D01*
D18*
X110200000Y-52300000D02*
X109500000Y-51600000D01*
X107520000Y-70120000D02*
X105100000Y-70120000D01*
D20*
X118660000Y-103142000D02*
X116000000Y-103142000D01*
D18*
X110100000Y-72700000D02*
X107520000Y-70120000D01*
X111151500Y-42381700D02*
X111151500Y-41280000D01*
X109500000Y-44033200D02*
X111151500Y-42381700D01*
D19*
X111147500Y-30430000D02*
X112111500Y-30430000D01*
X133000000Y-30200000D02*
X133777500Y-30200000D01*
D18*
X109500000Y-51600000D02*
X109500000Y-44033200D01*
D19*
X112111500Y-30430000D02*
X113241500Y-29300000D01*
D18*
%TO.N,/PwR5V*%
X107700000Y-52500000D02*
X110080000Y-54880000D01*
X118771500Y-41280000D02*
X121311500Y-41280000D01*
X121311500Y-41280000D02*
X122413200Y-41280000D01*
X110080000Y-54880000D02*
X112720000Y-54880000D01*
D20*
X125900000Y-54900000D02*
X131222000Y-54900000D01*
X134011500Y-54770500D02*
X134011500Y-48900000D01*
D18*
X123851500Y-41280000D02*
X122413200Y-41280000D01*
D19*
X133900000Y-54882000D02*
X134011500Y-54770500D01*
D20*
X136600000Y-46400000D02*
X136700000Y-46400000D01*
D18*
X116231500Y-41280000D02*
X113691500Y-41280000D01*
D19*
X133900000Y-54882000D02*
X133900000Y-55432800D01*
D20*
X134011500Y-48900000D02*
X134100000Y-48900000D01*
X131240000Y-54882000D02*
X133900000Y-54882000D01*
D18*
X110150000Y-75250000D02*
X112704000Y-75250000D01*
X107700000Y-52300000D02*
X107700000Y-52500000D01*
D20*
X131222000Y-54900000D02*
X131240000Y-54882000D01*
D18*
X116231500Y-41280000D02*
X118771500Y-41280000D01*
X107600000Y-72700000D02*
X110150000Y-75250000D01*
D20*
X124500000Y-56300000D02*
X125900000Y-54900000D01*
X134100000Y-48900000D02*
X136600000Y-46400000D01*
D18*
X113687500Y-38050000D02*
X111147500Y-38050000D01*
D19*
X133900000Y-54900000D02*
X133900000Y-54882000D01*
%TO.N,Net-(JP1-B)*%
X125798500Y-85398500D02*
X125800000Y-85400000D01*
D18*
X125800000Y-82000000D02*
X125800000Y-85400000D01*
D19*
%TO.N,/D8*%
X133900000Y-59962000D02*
X131240000Y-59962000D01*
%TO.N,Net-(U1-PHI0)*%
X118660000Y-95522000D02*
X116000000Y-95522000D01*
%TO.N,/A10*%
X131400000Y-70282000D02*
X131400000Y-70500000D01*
X132600000Y-71700000D02*
X132600000Y-73200000D01*
X132600000Y-73200000D02*
X133300000Y-73900000D01*
X135001700Y-74401700D02*
X135001700Y-75698300D01*
X135001700Y-75698300D02*
X133900000Y-76800000D01*
X131240000Y-70122000D02*
X131400000Y-70282000D01*
X131400000Y-70500000D02*
X132600000Y-71700000D01*
X134500000Y-73900000D02*
X135001700Y-74401700D01*
X133900000Y-76800000D02*
X133900000Y-77742000D01*
X133300000Y-73900000D02*
X134500000Y-73900000D01*
%TO.N,Net-(U1-Sync)*%
X118660000Y-90442000D02*
X116000000Y-90442000D01*
%TO.N,/D5*%
X118660000Y-57422000D02*
X116000000Y-57422000D01*
%TO.N,Net-(U1-A2)*%
X114900000Y-91800000D02*
X114200000Y-91100000D01*
X120838500Y-91800000D02*
X114900000Y-91800000D01*
X114200000Y-91100000D02*
X114200000Y-89446000D01*
X120838500Y-91800000D02*
X125830500Y-96792000D01*
X125830500Y-96792000D02*
X131792000Y-96792000D01*
X114200000Y-89446000D02*
X112704000Y-87950000D01*
X131792000Y-96792000D02*
X133062000Y-98062000D01*
X133062000Y-98062000D02*
X133900000Y-98062000D01*
%TO.N,/D9*%
X133900000Y-62502000D02*
X131240000Y-62502000D01*
%TO.N,/A9*%
X132798300Y-78298300D02*
X132798300Y-74198300D01*
X132798300Y-74198300D02*
X131262000Y-72662000D01*
X133900000Y-80282000D02*
X133900000Y-79400000D01*
X133900000Y-79400000D02*
X132798300Y-78298300D01*
X131262000Y-72662000D02*
X131240000Y-72662000D01*
%TO.N,/D11*%
X133900000Y-67582000D02*
X131240000Y-67582000D01*
%TO.N,/D0*%
X118660000Y-70122000D02*
X116000000Y-70122000D01*
%TO.N,Net-(U1-BA)*%
X118660000Y-82822000D02*
X116000000Y-82822000D01*
%TO.N,Net-(U1-AEC)*%
X114898300Y-92982000D02*
X116000000Y-92982000D01*
X113716300Y-91800000D02*
X114898300Y-92982000D01*
X110400000Y-91800000D02*
X113716300Y-91800000D01*
X118660000Y-92982000D02*
X116000000Y-92982000D01*
X107100000Y-88500000D02*
X110400000Y-91800000D01*
%TO.N,/D7*%
X133900000Y-57422000D02*
X131240000Y-57422000D01*
%TO.N,Net-(U1-Color)*%
X118660000Y-87902000D02*
X116000000Y-87902000D01*
%TO.N,Net-(U1-IRQ)*%
X118660000Y-72662000D02*
X116000000Y-72662000D01*
%TO.N,Net-(U1-LP)*%
X118660000Y-75202000D02*
X116000000Y-75202000D01*
%TO.N,Net-(U1-A0)*%
X133142000Y-103142000D02*
X133900000Y-103142000D01*
X112704000Y-93030000D02*
X113805700Y-93030000D01*
X113805700Y-93030000D02*
X114907400Y-94131700D01*
X129186000Y-101872000D02*
X131872000Y-101872000D01*
X121445700Y-94131700D02*
X129186000Y-101872000D01*
X131872000Y-101872000D02*
X133142000Y-103142000D01*
X114907400Y-94131700D02*
X121445700Y-94131700D01*
%TO.N,/D2*%
X118660000Y-65042000D02*
X116000000Y-65042000D01*
%TO.N,Net-(U1-A5)*%
X133542000Y-90800000D02*
X132864300Y-90800000D01*
X133900000Y-90442000D02*
X133542000Y-90800000D01*
X132864300Y-90800000D02*
X132203000Y-91461300D01*
%TO.N,Net-(U1-A6)*%
X115095700Y-76500000D02*
X113805700Y-77790000D01*
X133900000Y-87000000D02*
X132600000Y-85700000D01*
X128600000Y-81200000D02*
X123900000Y-76500000D01*
X129547900Y-84147900D02*
X128600000Y-83200000D01*
X132600000Y-84700000D02*
X132047900Y-84147900D01*
X133900000Y-87902000D02*
X133900000Y-87000000D01*
X132600000Y-85700000D02*
X132600000Y-84700000D01*
X123900000Y-76500000D02*
X115095700Y-76500000D01*
X132047900Y-84147900D02*
X129547900Y-84147900D01*
X128600000Y-83200000D02*
X128600000Y-81200000D01*
X113805700Y-77790000D02*
X112704000Y-77790000D01*
%TO.N,Net-(U1-A3)*%
X125365600Y-94300000D02*
X131822500Y-94300000D01*
X112704000Y-85410000D02*
X114300000Y-87006000D01*
X131822500Y-94300000D02*
X133044500Y-95522000D01*
X118997200Y-89200000D02*
X120876800Y-91079600D01*
X133044500Y-95522000D02*
X133900000Y-95522000D01*
X114300000Y-88100000D02*
X115400000Y-89200000D01*
X122145200Y-91079600D02*
X125365600Y-94300000D01*
X115400000Y-89200000D02*
X118997200Y-89200000D01*
X114300000Y-87006000D02*
X114300000Y-88100000D01*
X120876800Y-91079600D02*
X122145200Y-91079600D01*
%TO.N,Net-(U1-R{slash}~{W})*%
X118660000Y-80282000D02*
X116000000Y-80282000D01*
%TO.N,Net-(U1-A4)*%
X132882000Y-92982000D02*
X133900000Y-92982000D01*
X131603000Y-91709829D02*
X131954471Y-92061300D01*
X114955700Y-84020000D02*
X113805700Y-82870000D01*
X131961300Y-92061300D02*
X132882000Y-92982000D01*
X117300000Y-83700000D02*
X116980000Y-84020000D01*
X131603000Y-91704800D02*
X131603000Y-91709829D01*
X123621300Y-91704800D02*
X131603000Y-91704800D01*
X116980000Y-84020000D02*
X114955700Y-84020000D01*
X113805700Y-82870000D02*
X112704000Y-82870000D01*
X121000000Y-90300000D02*
X122216500Y-90300000D01*
X122216500Y-90300000D02*
X123621300Y-91704800D01*
X131954471Y-92061300D02*
X131961300Y-92061300D01*
%TO.N,/A7*%
X131240000Y-78240000D02*
X131240000Y-77742000D01*
X132362000Y-82911000D02*
X132362000Y-79362000D01*
X133900000Y-85362000D02*
X133900000Y-84449000D01*
X132362000Y-79362000D02*
X131240000Y-78240000D01*
X133900000Y-84449000D02*
X132362000Y-82911000D01*
%TO.N,/A8*%
X132785400Y-78981900D02*
X132785400Y-80834000D01*
X133900000Y-81948600D02*
X133900000Y-82822000D01*
X132398300Y-78594800D02*
X132785400Y-78981900D01*
X132398300Y-76398300D02*
X132398300Y-78594800D01*
X132785400Y-80834000D02*
X133900000Y-81948600D01*
X131240000Y-75202000D02*
X131240000Y-75240000D01*
X131240000Y-75240000D02*
X132398300Y-76398300D01*
%TO.N,/D1*%
X118660000Y-67582000D02*
X116000000Y-67582000D01*
%TO.N,/D10*%
X133900000Y-65042000D02*
X131240000Y-65042000D01*
%TO.N,/D3*%
X118660000Y-62502000D02*
X116000000Y-62502000D01*
%TO.N,Net-(U1-~{CS})*%
X118660000Y-77742000D02*
X116000000Y-77742000D01*
%TO.N,/D6*%
X118660000Y-54882000D02*
X116000000Y-54882000D01*
%TO.N,/D4*%
X118660000Y-59962000D02*
X116000000Y-59962000D01*
%TO.N,Net-(U2-A6)*%
X130138300Y-80282000D02*
X131240000Y-80282000D01*
X111188600Y-73811000D02*
X113463700Y-71535900D01*
X108775900Y-72936100D02*
X109650800Y-73811000D01*
X106238300Y-72161700D02*
X107000000Y-71400000D01*
X106238300Y-76635700D02*
X106238300Y-72161700D01*
X105084000Y-77790000D02*
X106238300Y-76635700D01*
X108775900Y-72175900D02*
X108775900Y-72936100D01*
X109650800Y-73811000D02*
X111188600Y-73811000D01*
X121392200Y-71535900D02*
X130138300Y-80282000D01*
X113463700Y-71535900D02*
X121392200Y-71535900D01*
X108000000Y-71400000D02*
X108775900Y-72175900D01*
X107000000Y-71400000D02*
X108000000Y-71400000D01*
%TO.N,Net-(U2-A2{slash}A10)*%
X106150000Y-87950000D02*
X109900000Y-84200000D01*
X109733000Y-39667000D02*
X114133000Y-39667000D01*
X103900000Y-45500000D02*
X109733000Y-39667000D01*
X109900000Y-84200000D02*
X113200000Y-84200000D01*
X115400000Y-36400000D02*
X117900000Y-36400000D01*
X113200000Y-84200000D02*
X115632000Y-86632000D01*
X115632000Y-86632000D02*
X126328300Y-86632000D01*
X105084000Y-87950000D02*
X103900000Y-86766000D01*
X117900000Y-36400000D02*
X123847500Y-30452500D01*
X103900000Y-86766000D02*
X103900000Y-45500000D01*
X130138300Y-90442000D02*
X131240000Y-90442000D01*
X126328300Y-86632000D02*
X130138300Y-90442000D01*
X114957500Y-38842500D02*
X114957500Y-36842500D01*
X105084000Y-87950000D02*
X106150000Y-87950000D01*
X114133000Y-39667000D02*
X114957500Y-38842500D01*
X114957500Y-36842500D02*
X115400000Y-36400000D01*
X123847500Y-30452500D02*
X123847500Y-30430000D01*
%TO.N,Net-(U2-A1{slash}A9)*%
X105084000Y-90490000D02*
X105010000Y-90490000D01*
X122588200Y-104700000D02*
X134629400Y-104700000D01*
X132558000Y-94300000D02*
X131240000Y-92982000D01*
X105010000Y-90490000D02*
X103800000Y-91700000D01*
X119337500Y-32400000D02*
X109600000Y-32400000D01*
X119760200Y-101872000D02*
X122588200Y-104700000D01*
X103800000Y-93600000D02*
X104500000Y-94300000D01*
X121307500Y-30430000D02*
X119337500Y-32400000D01*
X134629400Y-104700000D02*
X135458800Y-103870600D01*
X135458800Y-95460000D02*
X134298800Y-94300000D01*
X109600000Y-32400000D02*
X103500000Y-38500000D01*
X104500000Y-94300000D02*
X105900000Y-94300000D01*
X134298800Y-94300000D02*
X132558000Y-94300000D01*
X135458800Y-103870600D02*
X135458800Y-95460000D01*
X105900000Y-94300000D02*
X113472000Y-101872000D01*
X103500000Y-88900000D02*
X105084000Y-90484000D01*
X103800000Y-91700000D02*
X103800000Y-93600000D01*
X113472000Y-101872000D02*
X119760200Y-101872000D01*
X103500000Y-38500000D02*
X103500000Y-88900000D01*
X105084000Y-90484000D02*
X105084000Y-90490000D01*
%TO.N,Net-(U2-A0{slash}A8)*%
X119760200Y-99332000D02*
X124728200Y-104300000D01*
X105084000Y-93030000D02*
X105930000Y-93030000D01*
X135057100Y-103633700D02*
X135057100Y-97357100D01*
X132222000Y-95522000D02*
X131240000Y-95522000D01*
X134500000Y-96800000D02*
X133500000Y-96800000D01*
X133500000Y-96800000D02*
X132222000Y-95522000D01*
X105930000Y-93030000D02*
X112232000Y-99332000D01*
X112232000Y-99332000D02*
X119760200Y-99332000D01*
X135057100Y-97357100D02*
X134500000Y-96800000D01*
X134390800Y-104300000D02*
X135057100Y-103633700D01*
X124728200Y-104300000D02*
X134390800Y-104300000D01*
%TO.N,Net-(U2-A3{slash}A11)*%
X120543200Y-81431700D02*
X110164000Y-81431700D01*
X126444000Y-80444000D02*
X121530900Y-80444000D01*
X106185700Y-85410000D02*
X105084000Y-85410000D01*
X127600000Y-84262000D02*
X127600000Y-81600000D01*
X110164000Y-81431700D02*
X106185700Y-85410000D01*
X131240000Y-87902000D02*
X127600000Y-84262000D01*
X121530900Y-80444000D02*
X120543200Y-81431700D01*
X127600000Y-81600000D02*
X126444000Y-80444000D01*
%TO.N,Net-(U2-A5{slash}A13)*%
X115635300Y-73900000D02*
X122318000Y-73900000D01*
X113047000Y-76488300D02*
X115635300Y-73900000D01*
X122318000Y-73900000D02*
X131240000Y-82822000D01*
X110027400Y-76488300D02*
X113047000Y-76488300D01*
X106185700Y-80330000D02*
X110027400Y-76488300D01*
X105084000Y-80330000D02*
X106185700Y-80330000D01*
%TO.N,Net-(U2-A4{slash}A12)*%
X109903500Y-79152200D02*
X125852200Y-79152200D01*
X128100000Y-81400000D02*
X128100000Y-83600000D01*
X128100000Y-83600000D02*
X129862000Y-85362000D01*
X105084000Y-82870000D02*
X106185700Y-82870000D01*
X129862000Y-85362000D02*
X131240000Y-85362000D01*
X106185700Y-82870000D02*
X109903500Y-79152200D01*
X125852200Y-79152200D02*
X128100000Y-81400000D01*
%TD*%
M02*
